<?xml version="1.0" encoding="utf-8"?>
<!-- Generator: Adobe Illustrator 16.0.4, SVG Export Plug-In . SVG Version: 6.00 Build 0)  -->
<!DOCTYPE svg PUBLIC "-//W3C//DTD SVG 1.1//EN" "http://www.w3.org/Graphics/SVG/1.1/DTD/svg11.dtd">
<svg version="1.1" id="Vrstva_1" xmlns="http://www.w3.org/2000/svg" xmlns:xlink="http://www.w3.org/1999/xlink" x="0px" y="0px"
	 width="841.89px" height="595.28px" viewBox="0 0 841.89 595.28" enable-background="new 0 0 841.89 595.28" xml:space="preserve">
<polygon fill="#28348B" points="461.148,120.021 678.881,120.021 678.881,200.51 461.148,200.51 "/>
<path fill="#EC1B24" d="M324.214,200.486h136.934v-80.466H324.214V200.486z"/>
<polygon fill="#28348B" points="94.333,244.48 275,244.48 275,301.979 94.333,301.979 "/>
<g>
	<path fill="#FFFFFF" d="M120.158,273.904h9.162v5.253c-0.047,2.583-0.932,4.747-2.653,6.491c-1.733,1.733-3.915,2.624-6.544,2.671
		c-2.028-0.047-3.72-0.542-5.076-1.486c-1.379-0.908-2.382-1.957-3.007-3.148c-0.188-0.389-0.36-0.76-0.513-1.114
		c-0.142-0.365-0.26-0.825-0.354-1.379c-0.177-1.038-0.265-3.03-0.265-5.978c0-2.995,0.088-5,0.265-6.014
		c0.188-1.014,0.478-1.833,0.867-2.458c0.625-1.19,1.627-2.252,3.007-3.184c1.356-0.943,3.048-1.426,5.076-1.45
		c2.488,0.024,4.516,0.761,6.084,2.211c1.568,1.462,2.558,3.272,2.971,5.43h-4.139c-0.318-1.038-0.896-1.922-1.733-2.653
		c-0.873-0.696-1.934-1.055-3.184-1.079c-0.92,0.024-1.71,0.207-2.37,0.548c-0.672,0.354-1.214,0.796-1.627,1.327
		c-0.507,0.554-0.843,1.268-1.008,2.14c-0.188,0.919-0.283,2.647-0.283,5.182s0.094,4.251,0.283,5.147
		c0.165,0.896,0.501,1.621,1.008,2.175c0.413,0.531,0.955,0.961,1.627,1.291c0.66,0.389,1.45,0.584,2.37,0.584
		c1.521,0,2.777-0.519,3.767-1.557c0.991-0.991,1.498-2.293,1.521-3.909v-1.344h-5.253V273.904z"/>
	<path fill="#FFFFFF" d="M133.547,262.32h3.697v21.047c0,0.837,0.459,1.256,1.379,1.256h1.273v3.484h-1.645
		c-1.344,0-2.453-0.336-3.325-1.008c-0.919-0.684-1.379-1.833-1.379-3.449V262.32z"/>
	<path fill="#FFFFFF" d="M145.68,280.325c0,1.474,0.425,2.594,1.273,3.36c0.79,0.778,1.828,1.167,3.113,1.167
		c1.498,0,2.836-0.595,4.015-1.786l2.67,2.281c-1.875,2.005-4.08,2.995-6.615,2.972c-0.967,0-1.91-0.142-2.83-0.425
		c-0.46-0.153-0.908-0.359-1.344-0.619c-0.46-0.224-0.891-0.501-1.292-0.832c-0.778-0.684-1.409-1.639-1.892-2.865
		c-0.531-1.179-0.796-2.712-0.796-4.599c0-1.815,0.23-3.325,0.689-4.528c0.46-1.226,1.049-2.193,1.769-2.9
		c0.731-0.719,1.55-1.238,2.458-1.557c0.896-0.318,1.78-0.478,2.653-0.478c2.099,0.024,3.874,0.714,5.324,2.069
		c1.474,1.38,2.222,3.278,2.246,5.695v3.042H145.68z M153.427,277.283c-0.047-1.427-0.431-2.505-1.15-3.237
		c-0.708-0.695-1.616-1.043-2.724-1.043c-1.108,0-2.016,0.348-2.724,1.043c-0.696,0.731-1.079,1.81-1.15,3.237H153.427z"/>
	<path fill="#FFFFFF" d="M161.103,262.32h3.697v3.696h-3.697V262.32z M161.103,269.748h3.697v18.359h-3.697V269.748z"/>
	<path fill="#FFFFFF" d="M176.03,284.853c1.061,0,1.928-0.206,2.6-0.619c0.672-0.413,1.008-0.99,1.008-1.733
		c0-0.66-0.201-1.12-0.601-1.379c-0.413-0.271-0.961-0.418-1.645-0.442l-3.254-0.283c-1.545-0.142-2.801-0.66-3.767-1.557
		c-0.991-0.872-1.498-2.093-1.521-3.661c0.023-1.886,0.689-3.301,1.999-4.245c1.273-0.943,2.889-1.415,4.846-1.415
		c0.849,0,1.609,0.053,2.281,0.159c0.672,0.118,1.303,0.283,1.893,0.495c1.132,0.46,2.146,1.079,3.042,1.857l-2.281,2.67
		c-0.708-0.507-1.457-0.925-2.247-1.255c-0.778-0.295-1.674-0.442-2.688-0.442c-1.156,0-1.963,0.207-2.423,0.619
		c-0.483,0.413-0.725,0.943-0.725,1.592c-0.024,0.413,0.159,0.772,0.548,1.079c0.354,0.342,0.979,0.561,1.875,0.655l3.042,0.23
		c1.91,0.141,3.29,0.719,4.139,1.733c0.79,0.991,1.185,2.247,1.185,3.768c-0.024,1.78-0.749,3.154-2.176,4.121
		c-1.415,0.99-3.225,1.497-5.43,1.521c-2.995,0-5.689-1.097-8.083-3.29l2.583-2.529C171.726,284.068,173.66,284.853,176.03,284.853z
		"/>
	<path fill="#FFFFFF" d="M196.724,268.917v-3.927l3.661-2.67h3.697v25.787h-3.697v-21.878L196.724,268.917z"/>
</g>
<g>
	<path fill="#FFFFFF" d="M210.26,233.52c-37.795,0-75.59,0-113.386,0c0-37.795,0-75.59,0-113.386c37.795,0,75.591,0,113.386,0
		C210.26,157.929,210.26,195.725,210.26,233.52z M202.896,156.635c0,1.199,0,2.398,0,3.6c1.238,0,2.413,0,3.581,0
		c0-1.213,0-2.389,0-3.584c-1.227,0-2.412,0-3.597,0c0-1.198,0-2.396,0-3.598c-1.234,0-2.409,0-3.578,0c0,1.213,0,2.388,0,3.582
		C200.527,156.635,201.711,156.635,202.896,156.635z M155.389,226.141c0,1.199,0,2.399,0,3.597c1.239,0,2.415,0,3.613,0
		c0-1.226,0-2.412,0-3.597c1.214,0,2.429,0,3.644,0c0,1.199,0,2.399,0,3.597c1.239,0,2.415,0,3.613,0c0-1.226,0-2.412,0-3.597
		c1.252,0,2.504,0,3.757,0c0,1.199,0,2.399,0,3.597c1.239,0,2.415,0,3.613,0c0-1.226,0-2.412,0-3.597
		c2.423,0.006,4.847,0.012,7.271,0.019l-0.016-0.016c0,1.2,0,2.399,0,3.596c3.714,0,7.344,0,11.018,0c0-1.225,0-2.411,0-3.597
		l-0.016,0.016c1.214-0.006,2.428-0.012,3.642-0.018c0,1.199,0,2.399,0,3.597c1.277,0,2.491,0,3.727,0c0-1.226,0-2.412,0-3.597
		c1.2,0,2.401,0,3.66,0c0-2.489,0-4.913,0-7.376c1.224,0,2.387,0,3.57,0c0-1.219,0-2.396,0-3.633c-1.211,0-2.389,0-3.626,0
		c0-1.238,0-2.416,0-3.577c-2.472,0-4.881,0-7.352,0c0,1.208,0,2.386,0,3.587c-1.248,0-2.435,0-3.621,0l0.016,0.016
		c0-2.41,0-4.819,0-7.29c2.491,0,4.916,0,7.381,0c0-1.264,0-2.465,0-3.728c2.428,0,4.815,0,7.193,0c0-2.448,0-4.834,0-7.262
		c-1.208,0-2.372,0-3.597,0c0-1.219,0-2.397,0-3.601c-1.249,0-2.437,0-3.624,0c0-3.671-0.001-7.343-0.001-11.015
		c1.199,0,2.399,0,3.597,0c0-1.239,0-2.415,0-3.613c-1.226,0-2.412,0-3.597,0c0-1.237,0-2.475,0-3.769c-2.485,0-4.908,0-7.37,0
		c0-1.244,0-2.43,0-3.616c2.447,0,4.895,0,7.369,0c0-1.253,0-2.44,0-3.627c1.199,0,2.397,0,3.6,0c0-1.237,0-2.413,0-3.581
		c-1.213,0-2.389,0-3.584,0c0,1.226,0,2.412,0,3.597c-1.237,0-2.474,0-3.769,0c0-1.257,0-2.434,0-3.63c-1.245,0-2.431,0-3.616,0
		c0-2.461,0-4.923,0-7.384c1.199,0,2.397,0,3.6,0c0-1.237,0-2.413,0-3.581c-1.213,0-2.388,0-3.584,0c0,1.227,0,2.412,0,3.597
		c-1.201,0-2.401,0-3.662,0c0-1.264,0-2.441,0-3.607c-1.226,0-2.39,0-3.614,0c0,1.208,0,2.386,0,3.606c-1.287,0-2.511,0-3.736,0
		c0-1.201,0-2.402,0-3.629c-1.254,0-2.442,0-3.629,0c0-6.076,0-12.151,0-18.254c-1.252,0-2.44,0-3.627,0c0-1.253,0-2.506,0-3.759
		c1.201,0,2.401,0,3.592,0c0-2.453,0-4.839,0-7.203c-7.302,0-14.562,0-21.808,0c0,1.209,0,2.374,0,3.597c2.418,0,4.804,0,7.233,0
		c0,1.248,0,2.435,0,3.622c-1.201,0-2.402,0-3.629,0c0,2.502,0,4.937,0,7.372c-4.881-0.001-9.763-0.001-14.644-0.002
		c0-2.448,0-4.896,0-7.405c1.264,0,2.443,0,3.605,0c0-1.227,0-2.391,0-3.56c-2.419,0-4.806,0-7.255,0c0,1.217,0,2.396,0,3.555
		c-1.265,0-2.466,0-3.729,0c0-2.42,0-4.808,0-7.195c-1.227,0-2.391,0-3.617,0c0,1.204,0,2.383,0,3.622c-1.24,0-2.418,0-3.593,0
		c0,1.227,0,2.391,0,3.617c1.206,0,2.385,0,3.557,0c0,1.278,0,2.494,0,3.75c-1.207,0-2.372,0-3.548,0c0,1.22,0,2.397,0,3.602
		c2.434,0,4.83,0,7.227,0c0,3.655,0,7.311,0,10.966c1.276,0,2.491,0,3.726,0c0-3.683,0-7.325,0-10.966c1.214,0,2.428,0,3.643,0
		c0,1.199,0,2.399,0,3.657c1.239,0,2.416,0,3.631,0c0,1.246,0,2.431,0,3.617c-1.201,0-2.402,0-3.593,0c0,3.702,0,7.335,0,10.96
		c1.208,0,2.372,0,3.597,0c0-1.208,0-2.386,0-3.605c1.25,0,2.437,0,3.625,0c0,1.201,0,2.401,0,3.663c1.282,0,2.498,0,3.753,0
		c0,1.226,0,2.39,0,3.564c2.428,0,4.814,0,7.227,0c0-1.224,0-2.41,0-3.598c1.199,0,2.398,0,3.6,0c0-1.237,0-2.413,0-3.581
		c-1.213,0-2.389,0-3.584,0c0,1.227,0,2.412,0,3.597c-1.201,0-2.401,0-3.643,0c0-2.483,0-4.879,0-7.275c1.201,0,2.402,0,3.627,0
		c0-2.501,0-4.935,0-7.369c1.215,0,2.43-0.001,3.645-0.001c0,2.448,0,4.896,0,7.371c1.292,0,2.518,0,3.743,0
		c0,3.617,0,7.234,0,10.912c1.236,0,2.414,0,3.627,0c0,2.494,0,4.927,0,7.36c-1.201,0-2.401,0-3.663,0c0-1.261,0-2.439,0-3.606
		c-1.264,0-2.465,0-3.728,0c0,1.207,0,2.385,0,3.607c-1.249,0-2.436,0-3.622,0c0-1.199,0-2.398,0-3.6c-1.238,0-2.413,0-3.581,0
		c0,1.213,0,2.389,0,3.584c1.227,0,2.412,0,3.597,0c0,2.408,0,4.815,0,7.224c-1.256,0-2.432,0-3.668,0c0-1.216,0-2.394,0-3.58
		c-4.908,0-9.756,0-14.604,0c0-2.411,0-4.821,0-7.293c1.261,0,2.44,0,3.604,0c0-1.265,0-2.467,0-3.675c-2.419,0-4.806,0-7.255,0
		c0,1.254,0,2.471,0,3.668c-1.265,0-2.467,0-3.671,0c0-2.458,0-4.883,0-7.35c1.243,0,2.445,0,3.666,0c0-1.22,0-2.397,0-3.573
		c-6.125,0-12.216,0-18.305,0c0,1.206,0,2.37,0,3.596c1.244,0,2.46,0,3.67,0c0,1.241,0,2.418,0,3.637c-3.664,0-7.284,0-10.918,0
		c0,2.467,0,4.891,0,7.343c2.434,0,4.83,0,7.227,0c0,1.201,0,2.402,0,3.629c1.292,0,2.518,0,3.743,0c0,1.199,0,2.399,0,3.657
		c-1.293,0-2.508,0-3.743,0c0,1.283,0,2.506,0,3.73c-2.264-0.003-4.527-0.01-6.791-0.007c-1.376,0.002-2.752,0.02-4.127,0.028
		c0.005-1.259,0.011-2.519,0.016-3.778c2.407,0,4.814,0,7.228,0c0-1.236,0-2.412,0-3.582c-2.421,0-4.805,0-7.212,0
		c0,1.226,0,2.412,0,3.598c-2.462-0.001-4.925-0.002-7.387-0.003c0-1.2,0-2.4,0-3.66c1.261,0,2.439,0,3.609,0
		c0-1.225,0-2.388,0-3.57c-2.414,0-4.799,0-7.19,0c0,2.419,0,4.804,0,7.214c1.224,0,2.411,0,3.597,0c0,1.237,0,2.475,0,3.765
		c2.494,0,4.923,0,7.353,0c0.006,1.207,0.013,2.415,0.02,3.622c-2.447,0-4.893,0-7.4,0c0,1.24,0,2.418,0,3.634
		c-1.225,0-2.388,0-3.578,0c0,4.881,0,9.721,0,14.578c1.206,0,2.383,0,3.618,0c0-3.667,0-7.298,0-10.971c1.245,0,2.432,0,3.619,0
		c0,1.239,0,2.477,0,3.777c1.282,0,2.499,0,3.753,0c0,2.435,0,4.808,0,7.241c6.093,0,12.145,0,18.258,0c0,2.484,0,4.909,0,7.375
		c1.226,0,2.39,0,3.569,0c0,1.219,0,2.396,0,3.636c-1.213,0-2.392,0-3.564,0c0,6.1,0,12.138,0,18.198c4.871,0,9.713,0,14.617,0
		c0-2.419,0-4.806,0-7.254c1.239,0,2.417,0,3.578,0c0-1.264,0-2.466,0-3.729c-2.42,0-4.807,0-7.253,0c0-4.904,0-9.747,0-14.63
		c-2.472,0-4.882,0-7.302,0c0-1.219,0-2.396,0-3.616c3.681,0,7.324,0,10.968,0c0,1.201,0,2.402,0,3.664c1.245,0,2.423,0,3.59,0
		c0,1.264,0,2.466,0,3.729c-1.208,0-2.386,0-3.554,0c0,2.449,0,4.835,0,7.213c1.208,0,2.372,0,3.597,0c0-1.207,0-2.385,0-3.587
		c1.249,0,2.436,0,3.623,0l-0.016-0.016c0,1.201,0,2.401,0,3.626c2.52,0,4.954,0,7.388,0c0,1.199,0,2.398,0,3.656
		c-1.255,0-2.432,0-3.628,0c0,1.283,0,2.506,0,3.729c-1.237,0-2.475,0-3.711,0c0,1.239,0,2.415,0,3.612
		C152.942,226.141,154.166,226.141,155.389,226.141z M100.542,123.788c0,8.551,0,17.059,0,25.555c8.548,0,17.056,0,25.557,0
		c0-8.539,0-17.034,0-25.555C117.574,123.788,109.08,123.788,100.542,123.788z M126.087,229.753c0-8.554,0-17.062,0-25.555
		c-8.548,0-17.057,0-25.555,0c0,8.54,0,17.035,0,25.555C109.058,229.753,117.552,229.753,126.087,229.753z M180.933,123.788
		c0,8.552,0,17.061,0,25.555c8.548,0,17.057,0,25.556,0c0-8.54,0-17.035,0-25.555C197.964,123.788,189.469,123.788,180.933,123.788z
		 M111.504,156.629c2.447,0,4.834,0,7.209,0c0-1.239,0-2.417,0-3.585c-6.082,0-12.119,0-18.177,0c0,3.661,0,7.294,0,10.93
		c1.211,0,2.388,0,3.626,0c0-1.255,0-2.471,0-3.668c1.226,0,2.39,0,3.615,0c0,1.248,0,2.464,0,3.662c1.277,0,2.493,0,3.727,0
		C111.504,161.524,111.504,159.127,111.504,156.629z M129.796,142.042c0,2.469,0,4.892,0,7.299c1.217,0,2.394,0,3.559,0
		c0-2.456,0-4.865,0-7.299C132.162,142.042,130.999,142.042,129.796,142.042z M155.348,134.732c0-1.242,0-2.456,0-3.675
		c-1.247,0-2.461,0-3.666,0c0,1.252,0,2.466,0,3.675C152.926,134.732,154.126,134.732,155.348,134.732z M155.357,164.055
		c-1.262,0-2.476,0-3.671,0c0,1.218,0,2.394,0,3.557c1.247,0,2.447,0,3.671,0C155.357,166.418,155.357,165.256,155.357,164.055z
		 M206.492,185.937c-1.219,0-2.395,0-3.558,0c0,1.216,0,2.392,0,3.56c1.208,0,2.37,0,3.558,0
		C206.492,188.305,206.492,187.143,206.492,185.937z M202.916,174.86c1.219,0,2.395,0,3.558,0c0-1.216,0-2.392,0-3.56
		c-1.207,0-2.37,0-3.558,0C202.916,172.492,202.916,173.655,202.916,174.86z"/>
	<path fill-rule="evenodd" clip-rule="evenodd" d="M199.254,193.276c1.187,0,2.375,0,3.624,0c0,1.204,0,2.382,0,3.601
		c1.225,0,2.39,0,3.597,0c0,2.428,0,4.814,0,7.262c-2.378,0-4.765,0-7.193,0c0,1.263,0,2.464,0,3.728c-2.465,0-4.89,0-7.381,0
		c0,2.47,0,4.88,0,7.29c-4.863,0-9.727,0-14.599,0c0,1.235,0,2.411,0,3.583c4.877,0,9.717,0,14.583,0c0-1.225,0-2.412,0-3.599
		c1.187,0,2.373,0,3.621,0c0-1.201,0-2.379,0-3.587c2.471,0,4.88,0,7.352,0c0,1.161,0,2.338,0,3.577c1.237,0,2.415,0,3.626,0
		c0,1.238,0,2.415,0,3.633c-1.183,0-2.346,0-3.57,0c0,2.463,0,4.887,0,7.376c-1.259,0-2.46,0-3.66,0l0.016,0.017
		c0-1.199,0-2.399,0-3.597c-1.293,0-2.506,0-3.758,0c0,1.225,0,2.411,0,3.597l0.016-0.017c-1.214,0.006-2.428,0.012-3.642,0.018
		c0-1.199,0-2.398,0-3.6c-1.238,0-2.413,0-3.581,0c0,1.213,0,2.389,0,3.584c1.227,0,2.412,0,3.597,0c0,1.186,0,2.372,0,3.597
		c-3.674,0-7.304,0-11.018,0c0-1.197,0-2.396,0-3.596c1.236,0,2.473,0,3.713,0c0-1.238,0-2.413,0-3.581c-1.251,0-2.464,0-3.697,0
		c0,1.227,0,2.412,0,3.597c-2.424-0.006-4.848-0.013-7.271-0.019l0.015,0.017c0-1.199,0-2.398,0-3.597c-1.255,0-2.43,0-3.644,0
		c0,1.225,0,2.411,0,3.597l0.016-0.017c-1.252,0-2.505,0-3.757,0l0.015,0.017c0-1.199,0-2.398,0-3.597c-1.255,0-2.43,0-3.644,0
		c0,1.225,0,2.411,0,3.597l0.016-0.017c-1.214,0-2.429,0-3.644,0l0.016,0.017c0-1.201,0-2.402,0-3.644c-1.27,0-2.457,0-3.644,0
		l0.017,0.015c0-1.223,0-2.446,0-3.729c1.196,0,2.373,0,3.628,0c0-1.258,0-2.457,0-3.656l-0.017,0.016
		c1.214,0,2.428,0.001,3.643,0.002l-0.016-0.016c0,1.2,0,2.4,0,3.592c2.508,0,4.932,0,7.396,0c0-1.206,0-2.37,0-3.594
		c1.217,0,2.395,0,3.571,0c0-1.239,0-2.416,0-3.633c-1.204,0-2.368,0-3.592,0c0-1.218,0-2.396,0-3.633c-1.276,0-2.491,0-3.746,0
		c0-2.495,0-4.927,0-7.361c1.252,0,2.504-0.001,3.757-0.001c0,1.199,0,2.398,0,3.6c1.238,0,2.413,0,3.581,0c0-1.213,0-2.389,0-3.584
		c-1.227,0-2.412,0-3.597,0c0-1.201,0-2.402,0-3.664c1.264,0,2.443,0,3.607,0c0-2.498,0-4.933,0-7.368
		c1.222,0.006,2.444,0.011,3.666,0.017c0,1.237,0,2.473,0,3.713c1.237,0,2.413,0,3.581,0c0-1.251,0-2.464,0-3.697
		c-1.226,0-2.412,0-3.597,0c0-2.406,0-4.812,0-7.227c-1.231,0-2.406,0-3.633,0c0,2.427,0,4.818,0,7.208
		c-1.208,0.006-2.415,0.013-3.623,0.019c0-3.617,0-7.234,0-10.912c1.254,0,2.432,0,3.591,0c0-1.276,0-2.491,0-3.691
		c-2.456,0-4.865,0-7.336,0c0,1.245,0,2.46,0,3.731c-4.901,0-9.741,0-14.607,0c0,1.244,0,2.43,0,3.617c-1.201,0-2.401,0-3.663,0
		c0,1.244,0,2.422,0,3.588c-1.226,0-2.39,0-3.563,0c0-2.417,0-4.804,0-7.251c1.214,0,2.393,0,3.56,0c0-1.264,0-2.465,0-3.729
		c-1.208,0-2.386,0-3.59,0c0-1.249,0-2.436,0-3.623l-0.016,0.017c4.848,0,9.696,0,14.604,0c0,1.186,0,2.363,0,3.58
		c1.236,0,2.413,0,3.668,0c0-2.408,0-4.816,0-7.224l-0.016,0.016c1.187,0,2.374,0,3.622,0c0-1.222,0-2.4,0-3.607
		c1.263,0,2.464,0,3.728,0c0,1.167,0,2.345,0,3.606c1.261,0,2.462,0,3.663,0l-0.016-0.017c0,1.201,0,2.402,0,3.644
		c6.146,0,12.208,0,18.271,0l-0.017-0.016c0,1.186,0,2.372,0,3.616c2.462,0,4.885,0,7.37,0c0,1.294,0,2.532,0,3.769l0.017-0.015
		c-2.448,0-4.896,0-7.386,0c0,1.27,0,2.457,0,3.644l0.016-0.016c-1.199,0-2.398,0-3.597,0c0,1.255,0,2.43,0,3.644
		c1.226,0,2.411,0,3.597,0l-0.016-0.016c0,2.447,0,4.894,0,7.4c-2.45,0-4.836,0-7.221,0c0,1.225,0,2.388,0,3.611
		c2.413,0,4.799,0,7.246,0c0,1.237,0,2.415,0,3.578c1.239,0,2.417,0,3.633,0c0-1.209,0-2.373,0-3.597c1.256,0,2.472,0,3.728,0
		c0-1.248,0-2.435,0-3.622L199.254,193.276z M188.222,211.499c0-3.68,0-7.313,0-10.928c-3.673,0-7.306,0-10.927,0
		c0,3.665,0,7.285,0,10.928C180.945,211.499,184.565,211.499,188.222,211.499z M180.919,178.602c2.467,0,4.89,0,7.299,0
		c0-1.254,0-2.469,0-3.673c-2.455,0-4.864,0-7.299,0C180.919,176.158,180.919,177.359,180.919,178.602z M180.919,185.859
		c1.255,0,2.469,0,3.671,0c0-1.216,0-2.392,0-3.561c-1.245,0-2.445,0-3.671,0C180.919,183.489,180.919,184.652,180.919,185.859z"/>
	<path fill-rule="evenodd" clip-rule="evenodd" d="M144.391,200.516c-3.644,0-7.287,0-10.968,0c0,1.22,0,2.397,0,3.616
		c2.42,0,4.831,0,7.302,0c0,4.883,0,9.726,0,14.63c2.446,0,4.833,0,7.253,0c0,1.263,0,2.464,0,3.729c-1.16,0-2.338,0-3.578,0
		c0,2.448,0,4.835,0,7.254c-4.904,0-9.746,0-14.617,0c0-6.06,0-12.098,0-18.198c1.173,0,2.351,0,3.564,0c0-1.239,0-2.417,0-3.636
		c-1.179,0-2.343,0-3.569,0c0-2.466,0-4.89,0-7.375c-6.113,0-12.165,0-18.258,0c0-2.433,0-4.806,0-7.241c-1.255,0-2.471,0-3.753,0
		c0-1.3,0-2.538,0-3.777l-0.017,0.015c1.238,0,2.477,0,3.757,0c0-1.27,0-2.457,0-3.644l-0.016,0.016c1.199,0,2.398,0,3.596,0
		c0-1.255,0-2.431,0-3.644c-1.225,0-2.411,0-3.596,0l0.017,0.015c-0.007-1.207-0.014-2.415-0.02-3.623c0,0-0.016,0.018-0.016,0.018
		c1.376-0.01,2.752-0.028,4.128-0.03c2.264-0.003,4.527,0.004,6.791,0.007l-0.016-0.017c0.005,1.215,0.01,2.43,0.016,3.645
		c-1.201,0-2.402,0-3.627,0c0,3.71,0,7.353,0,10.996c-1.199,0-2.397,0-3.6,0c0,1.238,0,2.413,0,3.581c1.213,0,2.389,0,3.584,0
		c0-1.227,0-2.412,0-3.597c1.214,0,2.428,0.001,3.643,0.001c0,1.2,0,2.399,0,3.598c1.277,0,2.491,0,3.727,0c0-1.226,0-2.412,0-3.598
		c1.201,0,2.402,0,3.665,0c0,1.264,0,2.442,0,3.604c3.684,0,7.304,0,10.929,0c0-1.211,0-2.389,0-3.608c-1.242,0-2.444,0-3.666,0
		c0-1.258,0-2.473,0-3.687c3.669,0,7.303,0,10.934,0c0,1.245,0,2.446,0,3.71c-1.207,0-2.385,0-3.606,0c0,2.459,0,4.856,0,7.253
		L144.391,200.516z M133.405,218.734c1.238,0,2.414,0,3.577,0c0-1.209,0-2.372,0-3.547c-1.207,0-2.383,0-3.577,0
		C133.405,216.385,133.405,217.548,133.405,218.734z M136.987,222.561c-1.22,0-2.396,0-3.558,0c0,1.216,0,2.393,0,3.559
		c1.208,0,2.37,0,3.558,0C136.987,224.928,136.987,223.766,136.987,222.561z"/>
	<path fill-rule="evenodd" clip-rule="evenodd" d="M100.542,123.788c8.538,0,17.033,0,25.557,0c0,8.521,0,17.016,0,25.555
		c-8.501,0-17.009,0-25.557,0C100.542,140.847,100.542,132.339,100.542,123.788z M122.345,145.622c0-6.1,0-12.151,0-18.185
		c-6.092,0-12.144,0-18.183,0c0,6.084,0,12.123,0,18.185C110.231,145.622,116.269,145.622,122.345,145.622z"/>
	<path fill-rule="evenodd" clip-rule="evenodd" d="M126.087,229.753c-8.535,0-17.03,0-25.555,0c0-8.52,0-17.015,0-25.555
		c8.498,0,17.006,0,25.555,0C126.087,212.691,126.087,221.199,126.087,229.753z M122.36,207.934c-6.094,0-12.146,0-18.185,0
		c0,6.091,0,12.143,0,18.187c6.083,0,12.121,0,18.185,0C122.36,220.053,122.36,214.015,122.36,207.934z"/>
	<path fill-rule="evenodd" clip-rule="evenodd" d="M180.933,123.788c8.537,0,17.031,0,25.556,0c0,8.521,0,17.016,0,25.555
		c-8.5,0-17.008,0-25.556,0C180.933,140.848,180.933,132.34,180.933,123.788z M184.675,127.416c0,6.098,0,12.149,0,18.185
		c6.092,0,12.144,0,18.184,0c0-6.083,0-12.122,0-18.185C196.791,127.416,190.752,127.416,184.675,127.416z"/>
	<path fill-rule="evenodd" clip-rule="evenodd" d="M122.394,167.634c-2.397,0-4.793,0-7.227,0c0-2.452,0-4.876,0-7.343
		c3.634,0,7.254,0,10.918,0c0-1.219,0-2.396,0-3.637c-1.21,0-2.426,0-3.67,0c0-1.226,0-2.39,0-3.596c6.089,0,12.179,0,18.305,0
		c0,1.176,0,2.354,0,3.573c-1.221,0-2.423,0-3.666,0c0,2.467,0,4.891,0,7.35c1.204,0,2.406,0,3.671,0c0-1.198,0-2.414,0-3.668
		c2.449,0,4.835,0,7.255,0c0,1.208,0,2.41,0,3.675c-1.164,0-2.343,0-3.604,0c0,2.472,0,4.882,0,7.293l0.016-0.017
		c-1.214,0.005-2.429,0.011-3.644,0.017c0-1.2,0-2.399,0-3.598c-1.276,0-2.49,0-3.725,0c0,1.225,0,2.411,0,3.596
		c-1.215-0.005-2.43-0.01-3.645-0.015l0.016,0.016c0-1.199,0-2.398,0-3.656c-1.253,0-2.43,0-3.646,0c0-1.245,0-2.43,0-3.615
		c1.2,0,2.399,0,3.6,0c0-2.486,0-4.908,0-7.321c-1.214,0-2.391,0-3.584,0c0,2.475,0,4.906,0,7.337c-2.447,0-4.895,0-7.385,0
		c0,1.252,0,2.439,0,3.626L122.394,167.634z"/>
	<path fill-rule="evenodd" clip-rule="evenodd" d="M159.019,215.144c-2.434,0-4.868,0-7.388,0c0-1.225,0-2.426,0-3.627
		c1.236,0,2.473,0,3.713,0c0-1.237,0-2.413,0-3.581c-1.251,0-2.464,0-3.697,0c0,1.227,0,2.412,0,3.597c-1.188,0-2.374,0-3.623,0
		c0,1.202,0,2.38,0,3.587c-1.225,0-2.389,0-3.597,0c0-2.378,0-4.764,0-7.213c1.167,0,2.346,0,3.554,0c0-1.263,0-2.464,0-3.729
		c-1.167,0-2.345,0-3.59,0c0-1.261,0-2.462,0-3.664l-0.016,0.017c3.657,0,7.313,0,11.031,0c0,1.243,0,2.422,0,3.59
		c1.227,0,2.391,0,3.616,0c0-1.208,0-2.386,0-3.607c1.249,0,2.437,0,3.624,0c0,2.446,0,4.892,0,7.398c-1.253,0-2.431,0-3.644,0
		c0,2.456,0,4.85,0,7.245L159.019,215.144z"/>
	<path fill-rule="evenodd" clip-rule="evenodd" d="M173.644,167.651c0-2.433,0-4.866,0-7.36c-1.213,0-2.391,0-3.627,0
		c0-3.678,0-7.295,0-10.912L170,149.396c1.2,0,2.399,0,3.597,0c0-2.502,0-4.924,0-7.386c-1.225,0-2.411,0-3.597,0l0.016,0.016
		c0-1.199,0-2.398,0-3.656c1.239,0,2.416,0,3.628,0c0-1.245,0-2.431,0-3.616l-0.015,0.017c1.187,0,2.375,0,3.627,0
		c0,6.103,0,12.178,0,18.254l0.017-0.016c-1.199,0-2.398,0-3.596,0c0,1.255,0,2.431,0,3.644c1.225,0,2.411,0,3.596,0l-0.016-0.016
		c0,3.657,0,7.314,0,10.999c-1.254,0-2.441,0-3.628,0L173.644,167.651z"/>
	<path fill-rule="evenodd" clip-rule="evenodd" d="M144.389,138.38c-1.214,0-2.428,0-3.643,0l0.016,0.017c0-1.199,0-2.398,0-3.597
		c-1.292,0-2.506,0-3.757,0c0,1.226,0,2.411,0,3.597l0.016-0.017c-2.397,0-4.793,0-7.227,0c0-1.205,0-2.382,0-3.602
		c1.176,0,2.341,0,3.548,0c0-1.256,0-2.472,0-3.75c-1.172,0-2.351,0-3.557,0c0-1.226,0-2.39,0-3.617c1.174,0,2.353,0,3.593,0
		c0-1.239,0-2.417,0-3.622c1.226,0,2.39,0,3.617,0c0,2.388,0,4.775,0,7.195c1.263,0,2.465,0,3.729,0c0-1.16,0-2.338,0-3.555
		c2.449,0,4.835,0,7.255,0c0,1.169,0,2.333,0,3.56c-1.163,0-2.341,0-3.605,0c0,2.51,0,4.958,0,7.405L144.389,138.38z"/>
	<path fill-rule="evenodd" clip-rule="evenodd" d="M111.504,156.629c0,2.498,0,4.895,0,7.338c-1.234,0-2.45,0-3.727,0
		c0-1.198,0-2.415,0-3.662c-1.225,0-2.389,0-3.615,0c0,1.198,0,2.414,0,3.668c-1.238,0-2.416,0-3.626,0c0-3.636,0-7.269,0-10.93
		c6.058,0,12.095,0,18.177,0c0,1.169,0,2.346,0,3.585C116.338,156.629,113.951,156.629,111.504,156.629z"/>
	<path fill-rule="evenodd" clip-rule="evenodd" d="M122.394,178.65c0-1.224,0-2.447,0-3.73c1.235,0,2.449,0,3.743,0
		c0-1.258,0-2.458,0-3.657l-0.017,0.016c2.424,0,4.849,0,7.272,0l-0.016-0.016c0,1.201,0,2.401,0,3.628c1.271,0,2.458,0,3.645,0
		c0,1.237,0,2.475,0,3.771c-1.257,0-2.434,0-3.665,0c0,3.652,0,7.244,0,10.872c-2.449,0-4.843,0-7.237,0
		c0-1.215-0.001-2.43-0.001-3.645c1.2,0,2.4,0,3.597,0c0-2.45,0-4.835,0-7.257c-2.473,0-4.905,0-7.338,0L122.394,178.65z"/>
	<path fill-rule="evenodd" clip-rule="evenodd" d="M144.373,138.396c4.881,0.001,9.763,0.001,14.644,0.002l-0.015-0.017
		c0,1.201,0,2.402,0,3.645c1.27,0,2.457,0,3.644,0l-0.017-0.016c0,2.434,0,4.868,0,7.369c-1.226,0-2.427,0-3.627,0l0.016,0.017
		c0-1.237,0-2.474,0-3.71c-1.255,0-2.431,0-3.644,0c0,1.263,0,2.486,0,3.71l0.016-0.016c-1.252,0-2.505,0-3.757,0l0.016,0.016
		c0-1.239,0-2.477,0-3.758c-1.27,0-2.457,0-3.644,0l0.017,0.016c0-1.186,0-2.371,0-3.617c-1.215,0-2.392,0-3.631,0
		c0-1.258,0-2.458,0-3.657L144.373,138.396z"/>
	<path fill-rule="evenodd" clip-rule="evenodd" d="M162.646,131.026c0-1.187,0-2.374,0-3.622c-2.429,0-4.815,0-7.233,0
		c0-1.224,0-2.388,0-3.597c7.247,0,14.506,0,21.808,0c0,2.364,0,4.75,0,7.203c-1.191,0-2.392,0-3.592,0l0.015,0.017
		c0-1.199,0-2.398,0-3.596c-1.255,0-2.43,0-3.644,0c0,1.225,0,2.411,0,3.596l0.016-0.016c-2.462,0-4.924,0-7.386,0L162.646,131.026z
		"/>
	<path fill-rule="evenodd" clip-rule="evenodd" d="M107.768,189.519c-1.187,0-2.374,0-3.619,0c0,3.672,0,7.304,0,10.971
		c-1.235,0-2.412,0-3.618,0c0-4.857,0-9.697,0-14.578c1.189,0,2.353,0,3.578,0c0-1.216,0-2.395,0-3.634c2.507,0,4.954,0,7.4,0
		l-0.017-0.015c0,1.214,0,2.429,0,3.644l0.016-0.016c-1.238,0-2.477,0-3.757,0c0,1.27,0,2.457,0,3.644L107.768,189.519z"/>
	<path fill-rule="evenodd" clip-rule="evenodd" d="M180.885,156.653c1.225,0,2.45,0,3.736,0c0-1.22,0-2.398,0-3.606
		c1.225,0,2.388,0,3.614,0c0,1.166,0,2.344,0,3.607c1.261,0,2.461,0,3.662,0l-0.016-0.017c0,2.461,0,4.923,0.001,7.384l0.017-0.016
		c-1.199,0-2.398,0-3.655,0c0-1.276,0-2.49,0-3.758c-2.48,0-4.901,0-7.343,0c0-1.242,0-2.427,0-3.612L180.885,156.653z"/>
	<path fill-rule="evenodd" clip-rule="evenodd" d="M162.628,156.638c0,1.188,0,2.374,0,3.598c-2.413,0-4.799,0-7.227,0
		c0-1.174,0-2.338,0-3.564c-1.255,0-2.471,0-3.753,0c0-1.262,0-2.462,0-3.663l-0.017,0.016c1.238,0,2.477,0,3.757,0
		c0-1.27,0-2.458,0-3.645l-0.016,0.016c1.214,0,2.429,0,3.644,0l-0.016-0.017c0,2.396,0,4.792,0,7.275c1.241,0,2.442,0,3.643,0
		L162.628,156.638z"/>
	<path fill-rule="evenodd" clip-rule="evenodd" d="M199.253,182.262c0,3.671,0,7.343,0.001,11.015l0.016-0.017
		c-1.238,0-2.475,0-3.77,0c0-2.486,0-4.908,0-7.37c-1.244,0-2.43,0-3.616,0l0.016,0.016c0-1.215,0-2.43,0-3.644l-0.016,0.016
		c2.462,0,4.924,0,7.386,0L199.253,182.262z"/>
	<path fill-rule="evenodd" clip-rule="evenodd" d="M159.017,138.398c0-2.435,0-4.869,0-7.372c1.227,0,2.428,0,3.629,0l-0.017-0.015
		c0,1.237,0,2.475,0,3.771c1.256,0,2.434,0,3.628,0c0,2.455,0,4.849,0,7.243l0.016-0.017c-1.215,0-2.43,0-3.645,0.001l0.017,0.016
		c0-1.201,0-2.402,0-3.645c-1.27,0-2.458,0-3.644,0L159.017,138.398z"/>
	<path fill-rule="evenodd" clip-rule="evenodd" d="M151.648,153.008c-1.188,0-2.375,0-3.625,0c0,1.219,0,2.397,0,3.605
		c-1.226,0-2.389,0-3.597,0c0-3.625,0-7.258,0-10.96c1.191,0,2.392,0,3.593,0l-0.017-0.016c0,1.239,0,2.477,0,3.758
		c1.27,0,2.457,0,3.644,0l-0.016-0.016c0,1.215,0,2.43,0,3.645L151.648,153.008z"/>
	<path fill-rule="evenodd" clip-rule="evenodd" d="M140.747,138.38c0,3.642,0,7.284,0,10.966c-1.235,0-2.45,0-3.726,0
		c0-3.656,0-7.311,0-10.966l-0.016,0.017c1.252,0,2.505,0,3.757,0L140.747,138.38z"/>
	<path fill-rule="evenodd" clip-rule="evenodd" d="M199.252,167.636c0,1.187,0,2.374,0,3.627c-2.474,0-4.922,0-7.369,0l0.017,0.016
		c0-2.424,0-4.848,0-7.272l-0.017,0.016c1.186,0,2.371,0,3.616,0c0,1.197,0,2.374,0,3.63c1.295,0,2.532,0,3.769,0L199.252,167.636z"
		/>
	<path fill-rule="evenodd" clip-rule="evenodd" d="M104.137,174.89c-1.187,0-2.373,0-3.597,0c0-2.41,0-4.795,0-7.214
		c2.391,0,4.776,0,7.19,0c0,1.182,0,2.345,0,3.57c-1.17,0-2.348,0-3.609,0c0,1.26,0,2.46,0,3.66L104.137,174.89z"/>
	<path fill-rule="evenodd" clip-rule="evenodd" d="M170.017,149.38c-1.225,0-2.45,0-3.743,0c0-2.475,0-4.923,0-7.371l-0.016,0.017
		c1.252,0,2.505,0,3.757,0L170,142.009c0,2.462,0,4.924,0,7.386L170.017,149.38z"/>
	<path fill-rule="evenodd" clip-rule="evenodd" d="M104.121,174.906c2.462,0.001,4.924,0.002,7.387,0.003l-0.016-0.016
		c-0.005,1.259-0.011,2.519-0.017,3.779c0,0,0.016-0.018,0.015-0.018c-2.43,0.001-4.859,0.001-7.353,0.001c0-1.291,0-2.528,0-3.765
		C104.137,174.89,104.121,174.906,104.121,174.906z"/>
	<path fill-rule="evenodd" clip-rule="evenodd" d="M129.796,142.042c1.203,0,2.366,0,3.559,0c0,2.435,0,4.844,0,7.299
		c-1.165,0-2.341,0-3.559,0C129.796,146.935,129.796,144.512,129.796,142.042z"/>
	<path fill-rule="evenodd" clip-rule="evenodd" d="M111.508,174.909c0-1.186,0-2.372,0-3.598c2.407,0,4.791,0,7.212,0
		c0,1.17,0,2.346,0,3.582c-2.414,0-4.821,0-7.228,0L111.508,174.909z"/>
	<path fill-rule="evenodd" clip-rule="evenodd" d="M155.348,134.732c-1.222,0-2.422,0-3.666,0c0-1.209,0-2.423,0-3.675
		c1.205,0,2.418,0,3.666,0C155.348,132.277,155.348,133.491,155.348,134.732z"/>
	<path fill-rule="evenodd" clip-rule="evenodd" d="M199.254,226.141c0,1.186,0,2.372,0,3.597c-1.236,0-2.449,0-3.727,0
		c0-1.198,0-2.398,0-3.597l-0.016,0.017c1.253,0,2.505,0,3.758,0L199.254,226.141z"/>
	<path fill-rule="evenodd" clip-rule="evenodd" d="M155.389,226.141c-1.223,0-2.447,0-3.709,0c0-1.198,0-2.373,0-3.612
		c1.236,0,2.474,0,3.711,0l-0.017-0.015c0,1.214,0,2.429,0,3.644L155.389,226.141z"/>
	<path fill-rule="evenodd" clip-rule="evenodd" d="M173.629,131.01c0,1.253,0,2.506,0,3.759l0.015-0.017c-1.201,0-2.401,0-3.628,0
		c0-1.292,0-2.517,0-3.742L170,131.027c1.215,0,2.43,0,3.644,0L173.629,131.01z"/>
	<path fill-rule="evenodd" clip-rule="evenodd" d="M155.357,164.055c0,1.201,0,2.363,0,3.557c-1.224,0-2.425,0-3.671,0
		c0-1.163,0-2.339,0-3.557C152.881,164.055,154.095,164.055,155.357,164.055z"/>
	<path fill-rule="evenodd" clip-rule="evenodd" d="M126.136,171.263c-1.225,0-2.45,0-3.743,0c0-1.227,0-2.428,0-3.629l-0.016,0.017
		c1.239,0,2.477,0,3.742,0c0,1.254,0,2.441,0,3.628L126.136,171.263z"/>
	<path fill-rule="evenodd" clip-rule="evenodd" d="M162.648,167.636c-1.186,0-2.371,0-3.597,0c0-1.195,0-2.371,0-3.584
		c1.168,0,2.343,0,3.581,0c0,1.202,0,2.401,0,3.6L162.648,167.636z"/>
	<path fill-rule="evenodd" clip-rule="evenodd" d="M159.002,226.141c0,1.186,0,2.372,0,3.597c-1.198,0-2.374,0-3.613,0
		c0-1.198,0-2.398,0-3.597l-0.015,0.017c1.214,0,2.429,0,3.644,0L159.002,226.141z"/>
	<path fill-rule="evenodd" clip-rule="evenodd" d="M166.259,226.141c0,1.186,0,2.372,0,3.597c-1.198,0-2.374,0-3.613,0
		c0-1.198,0-2.398,0-3.597l-0.016,0.017c1.215,0,2.43,0,3.644,0L166.259,226.141z"/>
	<path fill-rule="evenodd" clip-rule="evenodd" d="M173.629,226.141c0,1.186,0,2.372,0,3.597c-1.198,0-2.374,0-3.613,0
		c0-1.198,0-2.398,0-3.597L170,226.158c1.215,0,2.43,0,3.644,0L173.629,226.141z"/>
	<path fill-rule="evenodd" clip-rule="evenodd" d="M199.268,167.652c0-1.185,0-2.371,0-3.597c1.195,0,2.371,0,3.584,0
		c0,1.168,0,2.343,0,3.581c-1.202,0-2.401,0-3.6,0L199.268,167.652z"/>
	<path fill-rule="evenodd" clip-rule="evenodd" d="M162.645,156.654c0-1.186,0-2.371,0-3.597c1.195,0,2.371,0,3.584,0
		c0,1.168,0,2.343,0,3.581c-1.202,0-2.401,0-3.6,0L162.645,156.654z"/>
	<path fill-rule="evenodd" clip-rule="evenodd" d="M206.492,185.937c0,1.206,0,2.368,0,3.56c-1.188,0-2.351,0-3.558,0
		c0-1.167,0-2.343,0-3.56C204.097,185.937,205.273,185.937,206.492,185.937z"/>
	<path fill-rule="evenodd" clip-rule="evenodd" d="M177.256,153.023c1.188,0,2.375,0,3.629,0c0,1.228,0,2.428,0,3.629l0.016-0.017
		c-1.215,0-2.429,0-3.644,0l0.016,0.016c0-1.214,0-2.429,0-3.644L177.256,153.023z"/>
	<path fill-rule="evenodd" clip-rule="evenodd" d="M191.898,156.654c0-1.186,0-2.371,0-3.597c1.196,0,2.371,0,3.584,0
		c0,1.168,0,2.343,0,3.581c-1.202,0-2.401,0-3.6,0L191.898,156.654z"/>
	<path fill-rule="evenodd" clip-rule="evenodd" d="M202.896,156.635c-1.185,0-2.369,0-3.594,0c0-1.194,0-2.369,0-3.582
		c1.169,0,2.344,0,3.578,0c0,1.201,0,2.399,0,3.598L202.896,156.635z"/>
	<path fill-rule="evenodd" clip-rule="evenodd" d="M199.253,178.648c1.186,0,2.372,0,3.597,0c0,1.198,0,2.374,0,3.613
		c-1.198,0-2.398,0-3.597,0l0.017,0.016c0-1.215,0-2.43,0-3.644L199.253,178.648z"/>
	<path fill-rule="evenodd" clip-rule="evenodd" d="M202.88,156.651c1.186,0,2.371,0,3.597,0c0,1.195,0,2.371,0,3.584
		c-1.168,0-2.343,0-3.581,0c0-1.202,0-2.401,0-3.6L202.88,156.651z"/>
	<path fill-rule="evenodd" clip-rule="evenodd" d="M202.916,174.86c0-1.205,0-2.368,0-3.56c1.188,0,2.351,0,3.558,0
		c0,1.167,0,2.344,0,3.56C205.311,174.86,204.135,174.86,202.916,174.86z"/>
	<path fill-rule="evenodd" clip-rule="evenodd" fill="#FFFFFF" d="M126.12,189.535c2.394,0,4.788,0,7.237,0c0-3.627,0-7.22,0-10.872
		c1.23,0,2.408,0,3.665,0c0-1.297,0-2.534,0-3.771l-0.017,0.016c1.238,0,2.477,0,3.757,0c0-1.27,0-2.457,0-3.644l-0.016,0.017
		c1.215-0.006,2.43-0.011,3.644-0.017c0,1.187,0,2.374,0,3.623c1.204,0,2.382,0,3.59,0c0,1.263,0,2.465,0,3.729
		c-1.167,0-2.346,0-3.56,0c0,2.448,0,4.834,0,7.251c1.173,0,2.337,0,3.563,0c0-1.166,0-2.344,0-3.588c1.262,0,2.462,0,3.663,0
		l-0.015-0.017c0,1.2,0,2.399,0,3.656c2.502,0,4.924,0,7.387,0c0,1.244,0,2.43,0,3.616c-1.201,0-2.402,0-3.628,0
		c0,1.291,0,2.516,0,3.74c-1.237,0-2.473,0-3.713,0c0,1.237,0,2.413,0,3.581c1.251,0,2.464,0,3.697,0c0-1.227,0-2.412,0-3.597
		c1.214,0,2.428,0.001,3.643,0.001c0,1.201,0,2.402,0,3.645c1.254,0,2.441,0,3.629,0l-0.016-0.016c0,1.215,0,2.429,0,3.644
		l0.016-0.017c-1.187,0-2.375,0-3.624,0c0,1.221,0,2.399,0,3.607c-1.225,0-2.389,0-3.616,0c0-1.168,0-2.347,0-3.59
		c-3.718,0-7.375,0-11.031,0c0-2.397,0-4.794,0-7.253c1.221,0,2.4,0,3.606,0c0-1.264,0-2.466,0-3.71c-3.63,0-7.264,0-10.934,0
		c0,1.213,0,2.429,0,3.687c1.222,0,2.424,0,3.666,0c0,1.219,0,2.397,0,3.608c-3.625,0-7.245,0-10.929,0c0-1.162,0-2.34,0-3.604
		c-1.263,0-2.464,0-3.665,0l0.016,0.017c0-1.252,0-2.505,0-3.757L126.12,189.535z"/>
	<path fill-rule="evenodd" clip-rule="evenodd" fill="#FFFFFF" d="M177.257,156.636c1.215,0,2.429,0,3.644,0
		c0,1.186,0,2.371,0,3.612c2.442,0,4.863,0,7.343,0c0,1.268,0,2.482,0,3.758c1.257,0,2.456,0,3.655,0c0,2.424,0,4.848,0,7.272
		c-6.062,0-12.125,0-18.271,0c0-1.242,0-2.443,0-3.644c1.188,0,2.375,0,3.628,0C177.257,163.95,177.257,160.293,177.257,156.636z"/>
	<path fill-rule="evenodd" clip-rule="evenodd" fill="#FFFFFF" d="M151.647,182.278c0-1.187,0-2.374,0-3.617
		c4.866,0,9.706,0,14.607,0c0-1.271,0-2.486,0-3.731c2.471,0,4.88,0,7.336,0c0,1.2,0,2.415,0,3.691c-1.159,0-2.336,0-3.591,0
		c0,3.678,0,7.295,0,10.912l0.017-0.016c-2.462,0.005-4.924,0.01-7.386,0.016c0-1.2,0-2.399,0-3.658c1.257,0,2.434,0,3.59,0
		c0-1.237,0-2.414,0-3.614c-4.894,0-9.741,0-14.588,0L151.647,182.278z"/>
	<path fill-rule="evenodd" clip-rule="evenodd" fill="#FFFFFF" d="M159.002,215.159c0-2.395,0-4.79,0-7.245c1.213,0,2.39,0,3.644,0
		c0-2.506,0-4.952,0-7.398l-0.016,0.017c1.215,0,2.43,0,3.644,0l-0.017-0.016c0,2.434,0,4.866,0,7.361c1.254,0,2.47,0,3.746,0
		c0,1.237,0,2.415,0,3.633c1.225,0,2.388,0,3.592,0c0,1.217,0,2.394,0,3.633c-1.176,0-2.354,0-3.571,0c0,1.224,0,2.388,0,3.594
		c-2.464,0-4.888,0-7.396,0c0-1.191,0-2.392,0-3.592c1.199,0,2.398,0,3.6,0c0-1.238,0-2.413,0-3.581c-1.213,0-2.389,0-3.584,0
		c0,1.227,0,2.412,0,3.597C161.43,215.161,160.216,215.16,159.002,215.159z"/>
	<path fill-rule="evenodd" clip-rule="evenodd" fill="#FFFFFF" d="M188.222,211.499c-3.657,0-7.277,0-10.927,0
		c0-3.644,0-7.263,0-10.928c3.621,0,7.253,0,10.927,0C188.222,204.186,188.222,207.818,188.222,211.499z M180.933,204.178
		c0,1.26,0,2.474,0,3.672c1.255,0,2.469,0,3.671,0c0-1.246,0-2.447,0-3.672C183.374,204.178,182.174,204.178,180.933,204.178z"/>
	<path fill-rule="evenodd" clip-rule="evenodd" fill="#FFFFFF" d="M191.884,185.89c1.186,0,2.372,0,3.616,0c0,2.462,0,4.884,0,7.37
		c1.294,0,2.532,0,3.77,0c0,1.187,0,2.374,0,3.622c-1.256,0-2.472,0-3.728,0c0,1.224,0,2.388,0,3.597c-1.217,0-2.394,0-3.633,0
		c0-1.163,0-2.34,0-3.578c-2.447,0-4.833,0-7.246,0c0-1.224,0-2.387,0-3.611c2.385,0,4.771,0,7.221,0
		C191.884,190.784,191.884,188.336,191.884,185.89z"/>
	<path fill-rule="evenodd" clip-rule="evenodd" fill="#FFFFFF" d="M173.605,189.5c0,2.435,0,4.871,0,7.368c-1.164,0-2.343,0-3.607,0
		c0,1.262,0,2.462,0,3.664l0.016-0.016c-1.252,0-2.504,0.001-3.757,0.001l0.017,0.016c0-1.201,0-2.401,0-3.644
		c-1.27,0-2.457,0-3.644,0l0.016,0.016c-0.006-1.214-0.011-2.429-0.017-3.644c2.448,0,4.896,0,7.386,0c0-1.292,0-2.517,0-3.742
		l-0.017,0.016c1.208-0.006,2.416-0.013,3.624-0.019C173.624,189.516,173.605,189.5,173.605,189.5z"/>
	<path fill-rule="evenodd" clip-rule="evenodd" fill="#FFFFFF" d="M191.885,215.142c0,1.187,0,2.374,0,3.599
		c-4.865,0-9.705,0-14.583,0c0-1.172,0-2.348,0-3.583c4.872,0,9.735,0,14.599,0L191.885,215.142z"/>
	<path fill-rule="evenodd" clip-rule="evenodd" fill="#FFFFFF" d="M180.919,178.602c0-1.242,0-2.443,0-3.673
		c2.436,0,4.845,0,7.299,0c0,1.204,0,2.419,0,3.673C185.809,178.602,183.386,178.602,180.919,178.602z"/>
	<path fill-rule="evenodd" clip-rule="evenodd" fill="#FFFFFF" d="M199.27,178.633c0,1.214,0,2.429,0,3.644
		c-2.462,0-4.924,0-7.386,0c0-1.188,0-2.375,0-3.644C194.374,178.633,196.822,178.633,199.27,178.633z"/>
	<path fill-rule="evenodd" clip-rule="evenodd" fill="#FFFFFF" d="M177.271,189.517c-1.222-0.005-2.443-0.011-3.666-0.017
		c0,0,0.018,0.016,0.018,0.015c-0.001-2.391-0.001-4.782-0.001-7.209c1.227,0,2.402,0,3.633,0c0,2.415,0,4.82,0,7.227
		L177.271,189.517z"/>
	<path fill-rule="evenodd" clip-rule="evenodd" fill="#FFFFFF" d="M177.255,189.533c1.185,0,2.371,0,3.597,0
		c0,1.233,0,2.446,0,3.697c-1.168,0-2.343,0-3.581,0c0-1.24,0-2.477,0-3.713L177.255,189.533z"/>
	<path fill-rule="evenodd" clip-rule="evenodd" fill="#FFFFFF" d="M199.27,226.158c-1.252,0-2.505,0-3.758,0
		c0-1.186,0-2.372,0-3.597c1.251,0,2.465,0,3.758,0C199.27,223.759,199.27,224.958,199.27,226.158z"/>
	<path fill-rule="evenodd" clip-rule="evenodd" fill="#FFFFFF" d="M180.9,226.16c0-1.186,0-2.371,0-3.597c1.233,0,2.446,0,3.697,0
		c0,1.168,0,2.343,0,3.581c-1.24,0-2.477,0-3.713,0L180.9,226.16z"/>
	<path fill-rule="evenodd" clip-rule="evenodd" fill="#FFFFFF" d="M180.919,185.859c0-1.207,0-2.37,0-3.561c1.226,0,2.427,0,3.671,0
		c0,1.168,0,2.345,0,3.561C183.389,185.859,182.175,185.859,180.919,185.859z"/>
	<path fill-rule="evenodd" clip-rule="evenodd" fill="#FFFFFF" d="M159.018,226.158c-1.215,0-2.43,0-3.644,0c0-1.215,0-2.43,0-3.644
		c1.187,0,2.374,0,3.644,0C159.018,223.756,159.018,224.957,159.018,226.158z"/>
	<path fill-rule="evenodd" clip-rule="evenodd" fill="#FFFFFF" d="M166.274,226.158c-1.214,0-2.429,0-3.644,0
		c0-1.186,0-2.372,0-3.597c1.214,0,2.389,0,3.644,0C166.274,223.759,166.274,224.958,166.274,226.158z"/>
	<path fill-rule="evenodd" clip-rule="evenodd" fill="#FFFFFF" d="M173.644,226.158c-1.214,0-2.429,0-3.644,0
		c0-1.186,0-2.372,0-3.597c1.214,0,2.389,0,3.644,0C173.644,223.759,173.644,224.958,173.644,226.158z"/>
	<path fill-rule="evenodd" clip-rule="evenodd" fill="#FFFFFF" d="M191.901,226.143c-1.185,0-2.371,0-3.597,0
		c0-1.195,0-2.371,0-3.584c1.168,0,2.343,0,3.581,0c0,1.202,0,2.401,0,3.6L191.901,226.143z"/>
	<path fill-rule="evenodd" clip-rule="evenodd" fill="#FFFFFF" d="M191.899,182.262c0,1.214,0,2.429,0,3.644
		c-1.186,0-2.371,0-3.597,0c0-1.214,0-2.389,0-3.644C189.501,182.262,190.7,182.262,191.899,182.262z"/>
	<path fill-rule="evenodd" clip-rule="evenodd" fill="#FFFFFF" d="M169.998,200.531c1.186,0,2.371,0,3.597,0
		c0,1.195,0,2.371,0,3.584c-1.168,0-2.343,0-3.581,0c0-1.202,0-2.401,0-3.6L169.998,200.531z"/>
	<path fill-rule="evenodd" clip-rule="evenodd" fill="#FFFFFF" d="M126.119,185.89c0,1.215,0,2.43,0.001,3.645l0.016-0.017
		c-1.239,0-2.477,0-3.758,0c0,1.308,0,2.533,0,3.757l0.016-0.017c-1.214,0-2.429,0-3.643-0.001l0.016,0.016
		c0-3.643,0-7.286,0-10.996c1.225,0,2.426,0,3.627,0l-0.016-0.017c0,1.201,0,2.401,0,3.644c1.308,0,2.533,0,3.758,0L126.119,185.89z
		"/>
	<path fill-rule="evenodd" clip-rule="evenodd" fill="#FFFFFF" d="M122.378,178.633c2.433,0,4.865,0,7.338,0
		c0,2.422,0,4.807,0,7.257c-1.196,0-2.396,0-3.597,0l0.017,0.016c0-1.201,0-2.402,0-3.644c-1.308,0-2.533,0-3.758,0l0.016,0.017
		C122.388,181.063,122.383,179.848,122.378,178.633z"/>
	<path fill-rule="evenodd" clip-rule="evenodd" fill="#FFFFFF" d="M126.12,193.259c0,1.186,0,2.372,0,3.598
		c-1.236,0-2.449,0-3.727,0c0-1.198,0-2.398,0-3.598l-0.016,0.017c1.252,0,2.505,0,3.758,0L126.12,193.259z"/>
	<path fill-rule="evenodd" clip-rule="evenodd" fill="#FFFFFF" d="M107.751,189.534c0-1.187,0-2.374,0-3.644c1.28,0,2.519,0,3.757,0
		c0,1.187,0,2.375,0,3.644C110.229,189.534,108.99,189.534,107.751,189.534z"/>
	<path fill-rule="evenodd" clip-rule="evenodd" fill="#FFFFFF" d="M133.405,218.734c0-1.186,0-2.349,0-3.547c1.194,0,2.37,0,3.577,0
		c0,1.175,0,2.338,0,3.547C135.819,218.734,134.643,218.734,133.405,218.734z"/>
	<path fill-rule="evenodd" clip-rule="evenodd" fill="#FFFFFF" d="M136.987,222.561c0,1.205,0,2.367,0,3.559
		c-1.188,0-2.35,0-3.558,0c0-1.167,0-2.343,0-3.559C134.591,222.561,135.767,222.561,136.987,222.561z"/>
	<path fill-rule="evenodd" clip-rule="evenodd" fill="#FFFFFF" d="M118.751,193.258c0,1.185,0,2.37,0,3.597
		c-1.195,0-2.371,0-3.584,0c0-1.168,0-2.343,0-3.581c1.202,0,2.401,0,3.6,0L118.751,193.258z"/>
	<path fill-rule="evenodd" clip-rule="evenodd" fill="#FFFFFF" d="M111.493,185.906c0-1.215,0-2.43,0-3.644c1.186,0,2.371,0,3.596,0
		c0,1.213,0,2.389,0,3.644C113.892,185.906,112.692,185.906,111.493,185.906z"/>
	<path fill-rule="evenodd" clip-rule="evenodd" fill="#FFFFFF" d="M122.345,145.622c-6.076,0-12.114,0-18.183,0
		c0-6.062,0-12.101,0-18.185c6.039,0,12.091,0,18.183,0C122.345,133.471,122.345,139.522,122.345,145.622z M118.718,141.992
		c0-3.676,0-7.309,0-10.928c-3.672,0-7.305,0-10.929,0c0,3.664,0,7.284,0,10.928C111.438,141.992,115.057,141.992,118.718,141.992z"
		/>
	<path fill-rule="evenodd" clip-rule="evenodd" fill="#FFFFFF" d="M122.36,207.934c0,6.081,0,12.119,0,18.187
		c-6.064,0-12.102,0-18.185,0c0-6.044,0-12.095,0-18.187C110.214,207.934,116.266,207.934,122.36,207.934z M118.717,222.497
		c0-3.679,0-7.312,0-10.928c-3.674,0-7.306,0-10.928,0c0,3.665,0,7.284,0,10.928C111.439,222.497,115.059,222.497,118.717,222.497z"
		/>
	<path fill-rule="evenodd" clip-rule="evenodd" fill="#FFFFFF" d="M184.675,127.416c6.077,0,12.115,0,18.184,0
		c0,6.062,0,12.101,0,18.185c-6.04,0-12.092,0-18.184,0C184.675,139.565,184.675,133.513,184.675,127.416z M199.221,141.993
		c0-3.68,0-7.312,0-10.928c-3.674,0-7.307,0-10.927,0c0,3.665,0,7.285,0,10.928C191.944,141.993,195.563,141.993,199.221,141.993z"
		/>
	<path fill-rule="evenodd" clip-rule="evenodd" fill="#FFFFFF" d="M126.12,171.279c0-1.187,0-2.374,0-3.628
		c-1.265,0-2.503,0-3.742,0c0-1.187,0-2.375,0-3.626c2.49,0,4.938,0,7.385,0l-0.016-0.016c0,1.186,0,2.371,0,3.615
		c1.215,0,2.392,0,3.646,0c0,1.258,0,2.457,0,3.656C130.968,171.279,128.544,171.279,126.12,171.279z"/>
	<path fill-rule="evenodd" clip-rule="evenodd" fill="#FFFFFF" d="M129.763,164.024c0-2.432,0-4.863,0-7.337c1.193,0,2.37,0,3.584,0
		c0,2.414,0,4.835,0,7.321c-1.201,0-2.4,0-3.6,0L129.763,164.024z"/>
	<path fill-rule="evenodd" clip-rule="evenodd" fill="#FFFFFF" d="M137.021,171.278c0-1.186,0-2.371,0-3.596
		c1.235,0,2.449,0,3.725,0c0,1.199,0,2.398,0,3.598l0.016-0.017c-1.252,0-2.505,0-3.757,0L137.021,171.278z"/>
	<path fill-rule="evenodd" clip-rule="evenodd" fill="#FFFFFF" d="M137.021,174.892c-1.188,0-2.375,0-3.645,0
		c0-1.227,0-2.428,0-3.628c1.215,0.005,2.43,0.01,3.645,0.015l-0.017-0.015c0,1.214,0,2.429,0,3.644L137.021,174.892z"/>
	<path fill-rule="evenodd" clip-rule="evenodd" fill="#FFFFFF" d="M151.646,211.533c0-1.186,0-2.371,0-3.597
		c1.233,0,2.446,0,3.697,0c0,1.168,0,2.343,0,3.581c-1.24,0-2.477,0-3.713,0C151.63,211.517,151.646,211.533,151.646,211.533z"/>
	<path fill-rule="evenodd" clip-rule="evenodd" fill="#FFFFFF" d="M170.016,131.011c0,1.225,0,2.45,0,3.742c1.227,0,2.428,0,3.628,0
		c0,1.186,0,2.371,0,3.616c-1.213,0-2.39,0-3.628,0c0,1.258,0,2.457,0,3.656c-1.252,0-2.505,0-3.757,0c0-2.394,0-4.788,0-7.243
		c-1.195,0-2.372,0-3.628,0c0-1.297,0-2.534,0-3.771C165.092,131.011,167.554,131.011,170.016,131.011z"/>
	<path fill-rule="evenodd" clip-rule="evenodd" fill="#FFFFFF" d="M170,149.396c0-2.462,0-4.924,0-7.386c1.186,0,2.373,0,3.597,0
		c0,2.462,0,4.884,0,7.386C172.399,149.396,171.2,149.396,170,149.396z"/>
	<path fill-rule="evenodd" clip-rule="evenodd" fill="#FFFFFF" d="M177.272,153.008c0,1.215,0,2.43,0,3.644
		c-1.186,0-2.371,0-3.596,0c0-1.213,0-2.389,0-3.644C174.874,153.008,176.073,153.008,177.272,153.008z"/>
	<path fill-rule="evenodd" clip-rule="evenodd" fill="#FFFFFF" d="M140.762,138.397c-1.252,0-2.505,0-3.757,0
		c0-1.186,0-2.371,0-3.597c1.251,0,2.465,0,3.757,0C140.762,135.999,140.762,137.198,140.762,138.397z"/>
	<path fill-rule="evenodd" clip-rule="evenodd" fill="#FFFFFF" d="M151.632,153.024c0-1.215,0-2.43,0-3.645c1.252,0,2.505,0,3.757,0
		c0,1.187,0,2.375,0,3.645C154.108,153.024,152.87,153.024,151.632,153.024z"/>
	<path fill-rule="evenodd" clip-rule="evenodd" fill="#FFFFFF" d="M159.018,149.396c-1.215,0-2.43,0-3.644,0c0-1.224,0-2.447,0-3.71
		c1.213,0,2.389,0,3.644,0C159.018,146.921,159.018,148.158,159.018,149.396z"/>
	<path fill-rule="evenodd" clip-rule="evenodd" fill="#FFFFFF" d="M151.647,149.396c-1.187,0-2.374,0-3.644,0
		c0-1.281,0-2.519,0-3.758c1.187,0,2.374,0,3.644,0C151.647,146.918,151.647,148.157,151.647,149.396z"/>
	<path fill-rule="evenodd" clip-rule="evenodd" fill="#FFFFFF" d="M159.002,138.381c1.187,0,2.374,0,3.644,0
		c0,1.243,0,2.444,0,3.645c-1.187,0-2.375,0-3.644,0C159.002,140.783,159.002,139.582,159.002,138.381z"/>
	<path fill-rule="evenodd" clip-rule="evenodd" fill="#FFFFFF" d="M173.644,131.027c-1.214,0-2.429,0-3.644,0
		c0-1.186,0-2.371,0-3.596c1.214,0,2.389,0,3.644,0C173.644,128.628,173.644,129.828,173.644,131.027z"/>
	<path fill-rule="evenodd" clip-rule="evenodd" d="M151.632,182.262c4.847,0,9.694,0,14.588,0c0,1.2,0,2.376,0,3.614
		c-1.156,0-2.333,0-3.59,0c0,1.259,0,2.458,0,3.658l0.017-0.016c-1.215,0-2.43,0-3.644,0l0.017,0.016c0-1.186,0-2.372,0-3.616
		c-2.463,0-4.885,0-7.387,0C151.632,184.661,151.632,183.461,151.632,182.262z"/>
	<path fill-rule="evenodd" clip-rule="evenodd" d="M126.136,193.275c-1.252,0-2.505,0-3.758,0c0-1.225,0-2.449,0-3.757
		c1.281,0,2.519,0,3.758,0C126.136,190.771,126.136,192.023,126.136,193.275z"/>
	<path fill-rule="evenodd" clip-rule="evenodd" d="M155.391,193.274c0-1.225,0-2.449,0-3.74c1.226,0,2.427,0,3.628,0l-0.017-0.016
		c0,1.252,0,2.505,0,3.757l0.015-0.017c-1.214,0-2.428,0-3.643-0.001L155.391,193.274z"/>
	<path fill-rule="evenodd" clip-rule="evenodd" d="M155.375,193.258c0,1.186,0,2.371,0,3.597c-1.233,0-2.446,0-3.697,0
		c0-1.168,0-2.344,0-3.581c1.24,0,2.477,0,3.713,0L155.375,193.258z"/>
	<path fill-rule="evenodd" clip-rule="evenodd" d="M137.005,174.907c0-1.215,0-2.43,0-3.644c1.252,0,2.505,0,3.757,0
		c0,1.187,0,2.374,0,3.644C139.482,174.907,138.243,174.907,137.005,174.907z"/>
	<path fill-rule="evenodd" clip-rule="evenodd" d="M162.629,193.26c0.005,1.214,0.011,2.429,0.017,3.644c-1.188,0-2.375,0-3.629,0
		c0-1.243,0-2.444,0-3.645l-0.015,0.017c1.214,0,2.429,0,3.644,0L162.629,193.26z"/>
	<path fill-rule="evenodd" clip-rule="evenodd" d="M162.63,196.888c1.187,0,2.375,0,3.644,0c0,1.243,0,2.443,0,3.644
		c-1.214,0-2.429,0-3.644,0C162.63,199.317,162.63,198.103,162.63,196.888z"/>
	<path fill-rule="evenodd" clip-rule="evenodd" d="M170.016,189.518c0,1.225,0,2.45,0,3.742c-2.491,0-4.938,0-7.386,0l0.017,0.015
		c0-1.252,0-2.505,0-3.757l-0.017,0.016C165.091,189.528,167.554,189.523,170.016,189.518z"/>
	<path fill-rule="evenodd" clip-rule="evenodd" d="M162.645,215.161c0-1.185,0-2.371,0-3.597c1.195,0,2.371,0,3.584,0
		c0,1.168,0,2.343,0,3.581c-1.202,0-2.401,0-3.6,0L162.645,215.161z"/>
	<path fill-rule="evenodd" clip-rule="evenodd" d="M180.933,204.178c1.241,0,2.441,0,3.671,0c0,1.225,0,2.426,0,3.672
		c-1.203,0-2.417,0-3.671,0C180.933,206.651,180.933,205.438,180.933,204.178z"/>
	<path fill-rule="evenodd" clip-rule="evenodd" d="M122.378,182.262c1.225,0,2.45,0,3.758,0c0,1.242,0,2.443,0,3.644
		c-1.225,0-2.45,0-3.758,0C122.378,184.663,122.378,183.462,122.378,182.262z"/>
	<path fill-rule="evenodd" clip-rule="evenodd" d="M118.718,141.992c-3.661,0-7.28,0-10.929,0c0-3.645,0-7.264,0-10.928
		c3.624,0,7.256,0,10.929,0C118.718,134.683,118.718,138.315,118.718,141.992z"/>
	<path fill-rule="evenodd" clip-rule="evenodd" d="M118.717,222.497c-3.659,0-7.278,0-10.928,0c0-3.644,0-7.263,0-10.928
		c3.622,0,7.254,0,10.928,0C118.717,215.185,118.717,218.817,118.717,222.497z"/>
	<path fill-rule="evenodd" clip-rule="evenodd" d="M199.221,141.993c-3.658,0-7.277,0-10.927,0c0-3.643,0-7.263,0-10.928
		c3.62,0,7.253,0,10.927,0C199.221,134.68,199.221,138.313,199.221,141.993z"/>
	<path fill-rule="evenodd" clip-rule="evenodd" fill="#FFFFFF" d="M162.646,189.518c0,1.252,0,2.505,0,3.757
		c-1.215,0-2.43,0-3.644,0c0-1.252,0-2.505,0-3.757C160.216,189.518,161.431,189.518,162.646,189.518z"/>
</g>
<rect x="96.761" y="120.021" fill="none" stroke="#FFFFFF" stroke-miterlimit="10" width="113.386" height="113.386"/>
<rect x="100.24" y="252.72" fill="none" stroke="#FFFFFF" stroke-width="0.7426" stroke-miterlimit="10" width="166.76" height="42.52"/>
<polygon fill="#28348B" points="94.333,301.979 275,301.979 275,359.479 94.333,359.479 "/>
<g>
	<path fill="#FFFFFF" d="M120.158,331.404h9.162v5.253c-0.047,2.582-0.932,4.746-2.653,6.491c-1.733,1.733-3.915,2.623-6.544,2.671
		c-2.028-0.048-3.72-0.543-5.076-1.486c-1.379-0.907-2.382-1.957-3.007-3.148c-0.188-0.389-0.36-0.76-0.513-1.114
		c-0.142-0.365-0.26-0.825-0.354-1.379c-0.177-1.038-0.265-3.03-0.265-5.979c0-2.995,0.088-4.999,0.265-6.014
		c0.188-1.014,0.478-1.833,0.867-2.458c0.625-1.19,1.627-2.252,3.007-3.184c1.356-0.943,3.048-1.427,5.076-1.45
		c2.488,0.023,4.516,0.761,6.084,2.211c1.568,1.462,2.558,3.271,2.971,5.43h-4.139c-0.318-1.038-0.896-1.922-1.733-2.653
		c-0.873-0.695-1.934-1.055-3.184-1.079c-0.92,0.024-1.71,0.207-2.37,0.549c-0.672,0.354-1.214,0.796-1.627,1.326
		c-0.507,0.555-0.843,1.268-1.008,2.141c-0.188,0.919-0.283,2.646-0.283,5.182s0.094,4.251,0.283,5.147
		c0.165,0.896,0.501,1.621,1.008,2.175c0.413,0.531,0.955,0.961,1.627,1.291c0.66,0.39,1.45,0.584,2.37,0.584
		c1.521,0,2.777-0.519,3.767-1.557c0.991-0.99,1.498-2.293,1.521-3.908v-1.345h-5.253V331.404z"/>
	<path fill="#FFFFFF" d="M133.547,319.819h3.697v21.047c0,0.838,0.459,1.256,1.379,1.256h1.273v3.484h-1.645
		c-1.344,0-2.453-0.336-3.325-1.008c-0.919-0.684-1.379-1.833-1.379-3.449V319.819z"/>
	<path fill="#FFFFFF" d="M145.68,337.824c0,1.475,0.425,2.595,1.273,3.36c0.79,0.778,1.828,1.168,3.113,1.168
		c1.498,0,2.836-0.596,4.015-1.786l2.67,2.281c-1.875,2.005-4.08,2.995-6.615,2.972c-0.967,0-1.91-0.142-2.83-0.425
		c-0.46-0.153-0.908-0.359-1.344-0.619c-0.46-0.224-0.891-0.501-1.292-0.831c-0.778-0.684-1.409-1.639-1.892-2.865
		c-0.531-1.179-0.796-2.712-0.796-4.599c0-1.815,0.23-3.325,0.689-4.528c0.46-1.226,1.049-2.192,1.769-2.9
		c0.731-0.719,1.55-1.238,2.458-1.557c0.896-0.318,1.78-0.478,2.653-0.478c2.099,0.024,3.874,0.714,5.324,2.069
		c1.474,1.38,2.222,3.278,2.246,5.695v3.042H145.68z M153.427,334.782c-0.047-1.427-0.431-2.505-1.15-3.236
		c-0.708-0.695-1.616-1.044-2.724-1.044c-1.108,0-2.016,0.349-2.724,1.044c-0.696,0.731-1.079,1.81-1.15,3.236H153.427z"/>
	<path fill="#FFFFFF" d="M161.103,319.819h3.697v3.696h-3.697V319.819z M161.103,327.248h3.697v18.358h-3.697V327.248z"/>
	<path fill="#FFFFFF" d="M176.03,342.353c1.061,0,1.928-0.206,2.6-0.619c0.672-0.413,1.008-0.99,1.008-1.733
		c0-0.66-0.201-1.12-0.601-1.38c-0.413-0.271-0.961-0.418-1.645-0.441l-3.254-0.283c-1.545-0.142-2.801-0.66-3.767-1.557
		c-0.991-0.872-1.498-2.093-1.521-3.661c0.023-1.887,0.689-3.302,1.999-4.245c1.273-0.943,2.889-1.415,4.846-1.415
		c0.849,0,1.609,0.054,2.281,0.159c0.672,0.118,1.303,0.283,1.893,0.495c1.132,0.46,2.146,1.079,3.042,1.857l-2.281,2.671
		c-0.708-0.507-1.457-0.926-2.247-1.256c-0.778-0.295-1.674-0.442-2.688-0.442c-1.156,0-1.963,0.207-2.423,0.619
		c-0.483,0.413-0.725,0.943-0.725,1.592c-0.024,0.413,0.159,0.772,0.548,1.079c0.354,0.342,0.979,0.561,1.875,0.654l3.042,0.23
		c1.91,0.141,3.29,0.719,4.139,1.732c0.79,0.991,1.185,2.247,1.185,3.768c-0.024,1.78-0.749,3.154-2.176,4.121
		c-1.415,0.99-3.225,1.497-5.43,1.521c-2.995,0-5.689-1.097-8.083-3.29l2.583-2.529C171.726,341.568,173.66,342.353,176.03,342.353z
		"/>
	<path fill="#FFFFFF" d="M194.531,342.122l10.063-12.593c0.389-0.507,0.654-0.979,0.796-1.415c0.094-0.412,0.142-0.802,0.142-1.167
		c0-0.967-0.301-1.81-0.902-2.529c-0.625-0.719-1.51-1.091-2.653-1.114c-1.014,0-1.857,0.324-2.529,0.973
		c-0.696,0.648-1.109,1.562-1.238,2.741h-3.679c0.094-2.146,0.813-3.92,2.158-5.323c1.355-1.368,3.024-2.063,5.005-2.087
		c2.216,0.023,4.015,0.731,5.395,2.122c1.403,1.38,2.116,3.131,2.14,5.253c0,1.698-0.519,3.207-1.557,4.528l-8.295,10.399h9.852
		v3.696h-14.698V342.122z"/>
</g>
<rect x="100.24" y="310.219" fill="none" stroke="#FFFFFF" stroke-width="0.7426" stroke-miterlimit="10" width="166.76" height="42.52"/>
<polygon fill="#28348B" points="94.333,359.479 275,359.479 275,416.979 94.333,416.979 "/>
<g>
	<path fill="#FFFFFF" d="M120.158,388.903h9.162v5.253c-0.047,2.583-0.932,4.747-2.653,6.491c-1.733,1.733-3.915,2.624-6.544,2.671
		c-2.028-0.047-3.72-0.542-5.076-1.485c-1.379-0.908-2.382-1.957-3.007-3.148c-0.188-0.39-0.36-0.761-0.513-1.114
		c-0.142-0.365-0.26-0.825-0.354-1.38c-0.177-1.037-0.265-3.03-0.265-5.978c0-2.995,0.088-5,0.265-6.014
		c0.188-1.014,0.478-1.833,0.867-2.459c0.625-1.19,1.627-2.252,3.007-3.184c1.356-0.942,3.048-1.426,5.076-1.45
		c2.488,0.024,4.516,0.761,6.084,2.211c1.568,1.462,2.558,3.272,2.971,5.43h-4.139c-0.318-1.037-0.896-1.922-1.733-2.652
		c-0.873-0.696-1.934-1.056-3.184-1.079c-0.92,0.023-1.71,0.206-2.37,0.548c-0.672,0.354-1.214,0.796-1.627,1.327
		c-0.507,0.554-0.843,1.268-1.008,2.14c-0.188,0.92-0.283,2.647-0.283,5.183s0.094,4.251,0.283,5.146
		c0.165,0.896,0.501,1.621,1.008,2.176c0.413,0.53,0.955,0.961,1.627,1.291c0.66,0.389,1.45,0.584,2.37,0.584
		c1.521,0,2.777-0.52,3.767-1.557c0.991-0.991,1.498-2.294,1.521-3.909v-1.344h-5.253V388.903z"/>
	<path fill="#FFFFFF" d="M133.547,377.319h3.697v21.047c0,0.837,0.459,1.256,1.379,1.256h1.273v3.484h-1.645
		c-1.344,0-2.453-0.336-3.325-1.009c-0.919-0.684-1.379-1.833-1.379-3.448V377.319z"/>
	<path fill="#FFFFFF" d="M145.68,395.324c0,1.474,0.425,2.594,1.273,3.36c0.79,0.778,1.828,1.167,3.113,1.167
		c1.498,0,2.836-0.595,4.015-1.786l2.67,2.281c-1.875,2.005-4.08,2.995-6.615,2.972c-0.967,0-1.91-0.142-2.83-0.425
		c-0.46-0.152-0.908-0.359-1.344-0.618c-0.46-0.225-0.891-0.502-1.292-0.832c-0.778-0.684-1.409-1.639-1.892-2.865
		c-0.531-1.179-0.796-2.712-0.796-4.599c0-1.815,0.23-3.325,0.689-4.527c0.46-1.227,1.049-2.193,1.769-2.9
		c0.731-0.72,1.55-1.238,2.458-1.557c0.896-0.318,1.78-0.478,2.653-0.478c2.099,0.023,3.874,0.714,5.324,2.069
		c1.474,1.38,2.222,3.278,2.246,5.695v3.042H145.68z M153.427,392.282c-0.047-1.427-0.431-2.506-1.15-3.237
		c-0.708-0.695-1.616-1.043-2.724-1.043c-1.108,0-2.016,0.348-2.724,1.043c-0.696,0.731-1.079,1.811-1.15,3.237H153.427z"/>
	<path fill="#FFFFFF" d="M161.103,377.319h3.697v3.696h-3.697V377.319z M161.103,384.747h3.697v18.359h-3.697V384.747z"/>
	<path fill="#FFFFFF" d="M176.03,399.852c1.061,0,1.928-0.206,2.6-0.619c0.672-0.412,1.008-0.99,1.008-1.733
		c0-0.66-0.201-1.119-0.601-1.379c-0.413-0.271-0.961-0.419-1.645-0.442l-3.254-0.283c-1.545-0.142-2.801-0.66-3.767-1.557
		c-0.991-0.872-1.498-2.093-1.521-3.661c0.023-1.886,0.689-3.301,1.999-4.244c1.273-0.943,2.889-1.415,4.846-1.415
		c0.849,0,1.609,0.053,2.281,0.159c0.672,0.118,1.303,0.283,1.893,0.495c1.132,0.46,2.146,1.079,3.042,1.857l-2.281,2.67
		c-0.708-0.507-1.457-0.925-2.247-1.255c-0.778-0.295-1.674-0.442-2.688-0.442c-1.156,0-1.963,0.206-2.423,0.619
		c-0.483,0.412-0.725,0.943-0.725,1.592c-0.024,0.412,0.159,0.772,0.548,1.078c0.354,0.343,0.979,0.561,1.875,0.655l3.042,0.229
		c1.91,0.142,3.29,0.72,4.139,1.733c0.79,0.99,1.185,2.246,1.185,3.768c-0.024,1.78-0.749,3.154-2.176,4.121
		c-1.415,0.99-3.225,1.497-5.43,1.521c-2.995,0-5.689-1.097-8.083-3.29l2.583-2.529C171.726,399.067,173.66,399.852,176.03,399.852z
		"/>
	<path fill="#FFFFFF" d="M199.73,388.179h1.273c1.262,0,2.24-0.348,2.936-1.044c0.696-0.672,1.043-1.544,1.043-2.617
		c-0.024-1.085-0.383-1.975-1.079-2.671c-0.696-0.672-1.592-1.02-2.688-1.043c-0.79,0-1.51,0.253-2.158,0.76
		c-0.684,0.508-1.144,1.291-1.38,2.353h-3.696c0.188-1.91,0.961-3.52,2.317-4.828c1.332-1.297,2.924-1.957,4.775-1.981
		c2.346,0.024,4.209,0.772,5.589,2.246c1.321,1.439,1.993,3.137,2.017,5.094c0,0.991-0.177,1.946-0.531,2.865
		c-0.413,0.92-1.149,1.74-2.211,2.459c1.085,0.707,1.869,1.557,2.353,2.547c0.46,0.99,0.689,2.028,0.689,3.112
		c-0.023,2.418-0.772,4.322-2.246,5.713c-1.45,1.427-3.313,2.152-5.589,2.176c-1.757,0-3.313-0.565-4.669-1.698
		c-1.356-1.132-2.234-2.771-2.635-4.917h3.696c0.33,0.861,0.796,1.557,1.397,2.088c0.613,0.554,1.427,0.831,2.441,0.831
		c1.084,0,1.999-0.371,2.741-1.114c0.754-0.695,1.144-1.687,1.167-2.972c-0.024-1.309-0.413-2.322-1.167-3.042
		c-0.743-0.695-1.686-1.044-2.83-1.044h-1.557V388.179z"/>
</g>
<rect x="100.24" y="367.719" fill="none" stroke="#FFFFFF" stroke-width="0.7426" stroke-miterlimit="10" width="166.76" height="42.52"/>
<g>
	<polygon fill="#28348B" points="461.148,130.566 669.041,130.566 669.041,188.324 461.148,188.324 	"/>
	<g>
		<path fill="#FFFFFF" d="M483.921,168.761c3.898-0.055,5.874-1.448,5.93-4.18c0.027-2.236-1.276-3.582-3.912-4.035
			c-1.208-0.164-2.532-0.35-3.974-0.556c-2.58-0.425-4.543-1.379-5.888-2.861c-1.387-1.523-2.079-3.377-2.079-5.559
			c0-2.622,0.871-4.735,2.614-6.341c1.688-1.593,4.083-2.402,7.186-2.43c3.732,0.082,6.979,1.119,9.737,3.108l-2.532,3.747
			c-2.251-1.482-4.729-2.251-7.432-2.306c-1.4,0-2.567,0.35-3.5,1.05c-0.975,0.728-1.476,1.812-1.503,3.253
			c0,0.864,0.336,1.647,1.009,2.347c0.672,0.714,1.75,1.208,3.232,1.482c0.823,0.138,1.948,0.296,3.376,0.474
			c2.813,0.385,4.893,1.394,6.238,3.026c1.331,1.605,1.997,3.473,1.997,5.6c-0.151,5.737-3.665,8.647-10.541,8.729
			c-4.447,0-8.27-1.372-11.468-4.117l2.985-3.418C477.786,167.738,480.627,168.733,483.921,168.761z"/>
		<path fill="#FFFFFF" d="M510.047,171.169h-0.083c-0.397,0.729-1.016,1.264-1.853,1.606c-0.823,0.356-1.963,0.535-3.417,0.535
			c-2.389-0.027-4.228-0.659-5.518-1.895c-1.359-1.207-2.038-2.751-2.038-4.632c0-1.798,0.59-3.287,1.771-4.468
			c1.18-1.207,2.909-1.825,5.188-1.853h5.95v-2.244c0.027-1.88-1.435-2.793-4.386-2.738c-1.07,0-1.914,0.11-2.532,0.33
			c-0.645,0.261-1.152,0.699-1.523,1.317l-3.376-2.573c1.633-2.142,4.042-3.185,7.227-3.13c2.689-0.027,4.838,0.48,6.443,1.523
			c1.606,1.07,2.423,2.91,2.45,5.518v14.597h-4.303V171.169z M510.047,164.005h-5.147c-2.498,0.055-3.733,0.913-3.705,2.573
			c0,0.728,0.322,1.346,0.968,1.854c0.617,0.562,1.64,0.844,3.067,0.844c1.798,0.027,3.067-0.186,3.809-0.639
			c0.672-0.452,1.009-1.481,1.009-3.088V164.005z"/>
		<path fill="#FFFFFF" d="M519.908,151.693h4.303v2.265h0.082c1.414-1.688,3.267-2.532,5.559-2.532
			c1.716,0.027,3.212,0.576,4.488,1.647l-3.129,3.726c-0.906-0.713-1.847-1.07-2.821-1.07c-1.098,0-2.038,0.357-2.82,1.07
			c-0.878,0.7-1.331,1.833-1.358,3.397v12.867h-4.303V151.693z"/>
		<path fill="#FFFFFF" d="M548.34,170.819c-1.414,1.605-3.253,2.437-5.518,2.491c-1.387-0.027-2.539-0.322-3.459-0.886
			c-0.961-0.535-1.695-1.111-2.202-1.729c-0.563-0.7-0.968-1.558-1.215-2.574c-0.261-1.001-0.392-2.909-0.392-5.723
			c0-2.869,0.131-4.811,0.392-5.826c0.247-1.002,0.651-1.847,1.215-2.533c0.507-0.672,1.241-1.276,2.202-1.812
			c0.92-0.508,2.072-0.775,3.459-0.803c2.127,0,3.967,0.844,5.518,2.532v-2.265h4.303v20.855c-0.055,3.212-0.981,5.572-2.779,7.082
			c-1.812,1.551-3.98,2.326-6.506,2.326c-2.896-0.055-5.366-1.249-7.411-3.582l3.335-2.655c0.549,0.507,1.181,0.939,1.895,1.297
			c0.727,0.397,1.481,0.61,2.265,0.638c1.468,0,2.648-0.404,3.541-1.215c0.878-0.823,1.331-1.963,1.358-3.417V170.819z
			 M539.857,162.399c0,1.633,0.055,2.759,0.165,3.376c0.096,0.646,0.322,1.181,0.68,1.605c0.288,0.385,0.727,0.734,1.317,1.051
			c0.562,0.384,1.263,0.576,2.1,0.576s1.537-0.192,2.101-0.576c0.562-0.316,0.988-0.666,1.276-1.051
			c0.356-0.425,0.597-0.96,0.721-1.605c0.082-0.617,0.123-1.743,0.123-3.376c0-1.661-0.041-2.813-0.123-3.459
			c-0.124-0.646-0.364-1.166-0.721-1.564c-0.288-0.385-0.714-0.762-1.276-1.133c-0.563-0.315-1.264-0.486-2.101-0.515
			c-0.837,0.028-1.537,0.199-2.1,0.515c-0.591,0.371-1.029,0.748-1.317,1.133c-0.357,0.398-0.584,0.919-0.68,1.564
			C539.912,159.586,539.857,160.738,539.857,162.399z"/>
		<path fill="#FFFFFF" d="M569.421,171.169h-0.082c-0.398,0.729-1.016,1.264-1.853,1.606c-0.824,0.356-1.963,0.535-3.418,0.535
			c-2.388-0.027-4.228-0.659-5.518-1.895c-1.358-1.207-2.038-2.751-2.038-4.632c0-1.798,0.59-3.287,1.771-4.468
			c1.181-1.207,2.91-1.825,5.188-1.853h5.949v-2.244c0.027-1.88-1.434-2.793-4.385-2.738c-1.07,0-1.915,0.11-2.532,0.33
			c-0.646,0.261-1.153,0.699-1.523,1.317l-3.377-2.573c1.634-2.142,4.042-3.185,7.227-3.13c2.69-0.027,4.838,0.48,6.444,1.523
			c1.605,1.07,2.422,2.91,2.449,5.518v14.597h-4.303V171.169z M569.421,164.005h-5.146c-2.498,0.055-3.733,0.913-3.706,2.573
			c0,0.728,0.322,1.346,0.968,1.854c0.617,0.562,1.64,0.844,3.067,0.844c1.798,0.027,3.067-0.186,3.809-0.639
			c0.673-0.452,1.009-1.481,1.009-3.088V164.005z"/>
		<path fill="#FFFFFF" d="M579.283,151.693h4.303v2.265h0.082c1.414-1.688,3.267-2.532,5.559-2.532c1.771,0,3.39,0.625,4.859,1.874
			c1.454,1.263,2.216,3.115,2.285,5.559v14.205h-4.303V160.34c0-1.495-0.398-2.635-1.194-3.417
			c-0.782-0.796-1.791-1.194-3.026-1.194s-2.251,0.398-3.047,1.194c-0.811,0.782-1.215,1.922-1.215,3.417v12.724h-4.303V151.693z"/>
		<path fill="#FFFFFF" d="M609.32,169.275c1.235,0,2.244-0.24,3.026-0.721s1.174-1.152,1.174-2.018c0-0.769-0.233-1.304-0.7-1.605
			c-0.48-0.315-1.119-0.487-1.915-0.515l-3.788-0.33c-1.798-0.164-3.26-0.769-4.385-1.812c-1.153-1.016-1.743-2.436-1.771-4.262
			c0.027-2.195,0.803-3.843,2.326-4.94c1.482-1.099,3.362-1.647,5.642-1.647c0.987,0,1.873,0.062,2.655,0.186
			c0.782,0.137,1.517,0.329,2.203,0.576c1.317,0.535,2.498,1.256,3.541,2.162l-2.656,3.108c-0.823-0.59-1.695-1.077-2.614-1.462
			c-0.906-0.343-1.949-0.515-3.129-0.515c-1.346,0-2.286,0.24-2.821,0.721c-0.562,0.48-0.844,1.099-0.844,1.853
			c-0.027,0.481,0.186,0.899,0.639,1.256c0.411,0.398,1.139,0.652,2.182,0.762l3.541,0.268c2.224,0.165,3.829,0.838,4.817,2.019
			c0.92,1.152,1.38,2.614,1.38,4.385c-0.027,2.072-0.872,3.672-2.532,4.797c-1.647,1.153-3.754,1.743-6.32,1.771
			c-3.486,0-6.623-1.276-9.409-3.829l3.006-2.944C604.311,168.362,606.562,169.275,609.32,169.275z"/>
	</g>
	<g>
		<path fill="#EC1B24" d="M332.883,188.308h128.265v-57.741H332.883V188.308z"/>
		<path fill="#FFFFFF" d="M389.864,155.006h18.727V140.18h8.819v14.826h18.728l-15.072-14.826h11.182l19.246,19.246l-19.246,19.247
			h-11.182l15.072-14.827h-18.728v14.827h-8.819v-14.827h-18.727l15.067,14.827h-11.177l-19.247-19.247l19.247-19.246h11.177"/>
	</g>
</g>
<rect x="332.883" y="130.566" fill="none" stroke="#FFFFFF" stroke-width="1.2289" stroke-miterlimit="10" width="336.158" height="57.758"/>
<polygon fill="#28348B" points="461.148,200.51 678.881,200.51 678.881,280.999 461.148,280.999 "/>
<path fill="#EC1B24" d="M324.214,280.976h136.934V200.51H324.214V280.976z"/>
<g>
	<polygon fill="#28348B" points="461.148,211.056 669.041,211.056 669.041,268.813 461.148,268.813 	"/>
	<g>
		<path fill="#FFFFFF" d="M483.921,249.25c3.898-0.055,5.874-1.448,5.93-4.18c0.027-2.236-1.276-3.582-3.912-4.035
			c-1.208-0.164-2.532-0.35-3.974-0.556c-2.58-0.425-4.543-1.379-5.888-2.861c-1.387-1.523-2.079-3.377-2.079-5.559
			c0-2.622,0.871-4.735,2.614-6.341c1.688-1.593,4.083-2.402,7.186-2.43c3.732,0.082,6.979,1.119,9.737,3.108l-2.532,3.747
			c-2.251-1.482-4.729-2.251-7.432-2.306c-1.4,0-2.567,0.35-3.5,1.05c-0.975,0.728-1.476,1.812-1.503,3.253
			c0,0.864,0.336,1.647,1.009,2.347c0.672,0.714,1.75,1.208,3.232,1.482c0.823,0.138,1.948,0.296,3.376,0.474
			c2.813,0.385,4.893,1.394,6.238,3.026c1.331,1.605,1.997,3.473,1.997,5.6c-0.151,5.737-3.665,8.647-10.541,8.729
			c-4.447,0-8.27-1.372-11.468-4.117l2.985-3.418C477.786,248.228,480.627,249.223,483.921,249.25z"/>
		<path fill="#FFFFFF" d="M510.047,251.658h-0.083c-0.397,0.729-1.016,1.264-1.853,1.606c-0.823,0.356-1.963,0.535-3.417,0.535
			c-2.389-0.027-4.228-0.659-5.518-1.895c-1.359-1.207-2.038-2.751-2.038-4.632c0-1.798,0.59-3.287,1.771-4.468
			c1.18-1.207,2.909-1.825,5.188-1.853h5.95v-2.244c0.027-1.88-1.435-2.793-4.386-2.738c-1.07,0-1.914,0.11-2.532,0.33
			c-0.645,0.261-1.152,0.699-1.523,1.317l-3.376-2.573c1.633-2.142,4.042-3.185,7.227-3.13c2.689-0.027,4.838,0.48,6.443,1.523
			c1.606,1.07,2.423,2.91,2.45,5.518v14.597h-4.303V251.658z M510.047,244.494h-5.147c-2.498,0.055-3.733,0.913-3.705,2.573
			c0,0.728,0.322,1.346,0.968,1.854c0.617,0.562,1.64,0.844,3.067,0.844c1.798,0.027,3.067-0.186,3.809-0.639
			c0.672-0.452,1.009-1.481,1.009-3.088V244.494z"/>
		<path fill="#FFFFFF" d="M519.908,232.183h4.303v2.265h0.082c1.414-1.688,3.267-2.532,5.559-2.532
			c1.716,0.027,3.212,0.576,4.488,1.647l-3.129,3.726c-0.906-0.713-1.847-1.07-2.821-1.07c-1.098,0-2.038,0.357-2.82,1.07
			c-0.878,0.7-1.331,1.833-1.358,3.397v12.867h-4.303V232.183z"/>
		<path fill="#FFFFFF" d="M548.34,251.309c-1.414,1.605-3.253,2.437-5.518,2.491c-1.387-0.027-2.539-0.322-3.459-0.886
			c-0.961-0.535-1.695-1.111-2.202-1.729c-0.563-0.7-0.968-1.558-1.215-2.574c-0.261-1.001-0.392-2.909-0.392-5.723
			c0-2.869,0.131-4.811,0.392-5.826c0.247-1.002,0.651-1.847,1.215-2.533c0.507-0.672,1.241-1.276,2.202-1.812
			c0.92-0.508,2.072-0.775,3.459-0.803c2.127,0,3.967,0.844,5.518,2.532v-2.265h4.303v20.855c-0.055,3.212-0.981,5.572-2.779,7.082
			c-1.812,1.551-3.98,2.326-6.506,2.326c-2.896-0.055-5.366-1.249-7.411-3.582l3.335-2.655c0.549,0.507,1.181,0.939,1.895,1.297
			c0.727,0.397,1.481,0.61,2.265,0.638c1.468,0,2.648-0.404,3.541-1.215c0.878-0.823,1.331-1.963,1.358-3.417V251.309z
			 M539.857,242.889c0,1.633,0.055,2.759,0.165,3.376c0.096,0.646,0.322,1.181,0.68,1.605c0.288,0.385,0.727,0.734,1.317,1.051
			c0.562,0.384,1.263,0.576,2.1,0.576s1.537-0.192,2.101-0.576c0.562-0.316,0.988-0.666,1.276-1.051
			c0.356-0.425,0.597-0.96,0.721-1.605c0.082-0.617,0.123-1.743,0.123-3.376c0-1.661-0.041-2.813-0.123-3.459
			c-0.124-0.646-0.364-1.166-0.721-1.564c-0.288-0.385-0.714-0.762-1.276-1.133c-0.563-0.315-1.264-0.486-2.101-0.515
			c-0.837,0.028-1.537,0.199-2.1,0.515c-0.591,0.371-1.029,0.748-1.317,1.133c-0.357,0.398-0.584,0.919-0.68,1.564
			C539.912,240.075,539.857,241.228,539.857,242.889z"/>
		<path fill="#FFFFFF" d="M569.421,251.658h-0.082c-0.398,0.729-1.016,1.264-1.853,1.606c-0.824,0.356-1.963,0.535-3.418,0.535
			c-2.388-0.027-4.228-0.659-5.518-1.895c-1.358-1.207-2.038-2.751-2.038-4.632c0-1.798,0.59-3.287,1.771-4.468
			c1.181-1.207,2.91-1.825,5.188-1.853h5.949v-2.244c0.027-1.88-1.434-2.793-4.385-2.738c-1.07,0-1.915,0.11-2.532,0.33
			c-0.646,0.261-1.153,0.699-1.523,1.317l-3.377-2.573c1.634-2.142,4.042-3.185,7.227-3.13c2.69-0.027,4.838,0.48,6.444,1.523
			c1.605,1.07,2.422,2.91,2.449,5.518v14.597h-4.303V251.658z M569.421,244.494h-5.146c-2.498,0.055-3.733,0.913-3.706,2.573
			c0,0.728,0.322,1.346,0.968,1.854c0.617,0.562,1.64,0.844,3.067,0.844c1.798,0.027,3.067-0.186,3.809-0.639
			c0.673-0.452,1.009-1.481,1.009-3.088V244.494z"/>
		<path fill="#FFFFFF" d="M579.283,232.183h4.303v2.265h0.082c1.414-1.688,3.267-2.532,5.559-2.532c1.771,0,3.39,0.625,4.859,1.874
			c1.454,1.263,2.216,3.115,2.285,5.559v14.205h-4.303v-12.724c0-1.495-0.398-2.635-1.194-3.417
			c-0.782-0.796-1.791-1.194-3.026-1.194s-2.251,0.398-3.047,1.194c-0.811,0.782-1.215,1.922-1.215,3.417v12.724h-4.303V232.183z"/>
		<path fill="#FFFFFF" d="M609.32,249.765c1.235,0,2.244-0.24,3.026-0.721s1.174-1.152,1.174-2.018c0-0.769-0.233-1.304-0.7-1.605
			c-0.48-0.315-1.119-0.487-1.915-0.515l-3.788-0.33c-1.798-0.164-3.26-0.769-4.385-1.812c-1.153-1.016-1.743-2.436-1.771-4.262
			c0.027-2.195,0.803-3.843,2.326-4.94c1.482-1.099,3.362-1.647,5.642-1.647c0.987,0,1.873,0.062,2.655,0.186
			c0.782,0.137,1.517,0.329,2.203,0.576c1.317,0.535,2.498,1.256,3.541,2.162l-2.656,3.108c-0.823-0.59-1.695-1.077-2.614-1.462
			c-0.906-0.343-1.949-0.515-3.129-0.515c-1.346,0-2.286,0.24-2.821,0.721c-0.562,0.48-0.844,1.099-0.844,1.853
			c-0.027,0.481,0.186,0.899,0.639,1.256c0.411,0.398,1.139,0.652,2.182,0.762l3.541,0.268c2.224,0.165,3.829,0.838,4.817,2.019
			c0.92,1.152,1.38,2.614,1.38,4.385c-0.027,2.072-0.872,3.672-2.532,4.797c-1.647,1.153-3.754,1.743-6.32,1.771
			c-3.486,0-6.623-1.276-9.409-3.829l3.006-2.944C604.311,248.852,606.562,249.765,609.32,249.765z"/>
	</g>
	<g>
		<path fill="#EC1B24" d="M332.883,268.797h128.265v-57.741H332.883V268.797z"/>
		<path fill="#FFFFFF" d="M389.864,235.495h18.727v-14.826h8.819v14.826h18.728l-15.072-14.826h11.182l19.246,19.246l-19.246,19.247
			h-11.182l15.072-14.827h-18.728v14.827h-8.819v-14.827h-18.727l15.067,14.827h-11.177l-19.247-19.247l19.247-19.246h11.177"/>
	</g>
</g>
<rect x="332.883" y="211.056" fill="none" stroke="#FFFFFF" stroke-width="1.2289" stroke-miterlimit="10" width="336.158" height="57.758"/>
<path fill="#EC1B24" d="M334.348,338.895h89.999v-30h-89.999V338.895z"/>
<path fill="#FFFFFF" d="M387.312,321.593h9.729v-7.704h4.582v7.704h9.73l-7.83-7.704h5.809l10,10l-10,10h-5.809l7.83-7.703h-9.73
	v7.703h-4.582v-7.703h-9.729l7.828,7.703h-5.807l-10-10l10-10h5.807"/>
<path d="M433.633,327.916c-0.059,5.177,4.293,7.471,8.939,7.471c5.705,0,8.734-2.881,8.734-6.735c0-4.763-4.706-5.733-6.234-6.114
	c-5.266-1.354-6.263-1.561-6.263-3.177c0-1.765,1.704-2.382,3.175-2.382c2.206,0,4,0.646,4.146,3.176h4.471
	c0-4.853-4.028-6.763-8.41-6.763c-3.794,0-7.852,2.059-7.852,6.353c0,3.938,3.146,5.145,6.265,5.968
	c3.088,0.823,6.232,1.206,6.232,3.468c0,2.148-2.471,2.619-4.087,2.619c-2.472,0-4.646-1.09-4.646-3.883"/>
<path d="M458.765,317.492h4.323c1.645,0,3.174,0.41,3.174,2.41c0,1.765-1.206,2.5-2.822,2.5h-4.675V317.492L458.765,317.492z
	 M454.148,334.9h10.172c3.793,0,7.412-1.824,7.412-6.088c0-2.616-1.295-4.588-3.854-5.322c1.825-0.881,2.854-2.323,2.854-4.381
	c0-3.91-2.706-5.205-6.706-5.205h-9.879V334.9z M458.765,325.548h5.026c1.972,0,3.323,0.854,3.323,3c0,2.175-1.587,2.765-3.41,2.765
	h-4.939"/>
<path d="M479.427,317.492h4.323c1.645,0,3.174,0.41,3.174,2.41c0,1.765-1.207,2.5-2.822,2.5h-4.675V317.492L479.427,317.492z
	 M474.807,334.9h10.175c3.794,0,7.41-1.824,7.41-6.088c0-2.616-1.294-4.588-3.852-5.322c1.823-0.881,2.853-2.323,2.853-4.381
	c0-3.91-2.704-5.205-6.704-5.205h-9.882V334.9z M479.427,325.548h5.026c1.971,0,3.322,0.854,3.322,3c0,2.175-1.588,2.765-3.41,2.765
	h-4.938"/>
<path d="M521.728,320.958c-0.559-4.853-4.438-7.556-9.055-7.556c-6.5,0-10.32,4.852-10.32,11.085c0,6.058,3.82,10.91,10.32,10.91
	c5.146,0,8.762-3.353,9.232-8.587h-4.471c-0.352,2.764-1.939,4.705-4.762,4.705c-4.146,0-5.707-3.528-5.707-7.028
	c0-3.675,1.562-7.204,5.707-7.204c2.293,0,4.293,1.588,4.587,3.675"/>
<path d="M524.743,334.9h4.617v-8.676h8.794v-3.587h-8.794v-4.853h10.146v-3.881h-14.763"/>
<path d="M542.337,334.9h4.603v-8.676h8.784v-3.587h-8.784v-4.853h10.134v-3.881h-14.736"/>
<path d="M566.94,334.9h4.629v-8.676h8.783v-3.587h-8.783v-4.853h10.133v-3.881H566.94"/>
<path d="M585.194,334.9h4.603v-8.676h8.784v-3.587h-8.784v-4.853h10.159v-3.881h-14.762"/>
<path d="M601.597,327.916c-0.054,5.177,4.285,7.471,8.941,7.471c5.715,0,8.73-2.881,8.73-6.735c0-4.763-4.709-5.733-6.217-6.114
	c-5.265-1.354-6.27-1.561-6.27-3.177c0-1.765,1.691-2.382,3.174-2.382c2.195,0,3.994,0.646,4.153,3.176h4.444
	c0-4.853-4.021-6.763-8.387-6.763c-3.809,0-7.856,2.059-7.856,6.353c0,3.938,3.147,5.145,6.27,5.968
	c3.069,0.823,6.218,1.206,6.218,3.468c0,2.148-2.461,2.619-4.074,2.619c-2.487,0-4.656-1.09-4.656-3.883"/>
<rect x="327.04" y="301.979" fill="none" stroke="#FFFFFF" stroke-width="1.2289" stroke-miterlimit="10" width="301.998" height="43.333"/>
<path fill="#EC1B24" d="M335.384,410.228h89.999v-30h-89.999V410.228z"/>
<path fill="#FFFFFF" d="M388.348,392.926h9.729v-7.704h4.582v7.704h9.73l-7.83-7.704h5.809l10,10l-10,10h-5.809l7.83-7.703h-9.73
	v7.703h-4.582v-7.703h-9.729l7.828,7.703h-5.807l-10-10l10-10h5.807"/>
<path d="M434.669,399.249c-0.059,5.177,4.293,7.471,8.939,7.471c5.705,0,8.734-2.881,8.734-6.735c0-4.763-4.706-5.733-6.234-6.114
	c-5.266-1.354-6.263-1.561-6.263-3.177c0-1.765,1.704-2.382,3.175-2.382c2.206,0,4,0.646,4.146,3.176h4.471
	c0-4.853-4.028-6.763-8.41-6.763c-3.794,0-7.852,2.059-7.852,6.353c0,3.938,3.146,5.145,6.265,5.968
	c3.088,0.823,6.232,1.206,6.232,3.468c0,2.148-2.471,2.619-4.087,2.619c-2.472,0-4.646-1.09-4.646-3.883"/>
<path d="M459.801,388.825h4.323c1.645,0,3.174,0.41,3.174,2.41c0,1.765-1.206,2.5-2.822,2.5h-4.675V388.825L459.801,388.825z
	 M455.185,406.233h10.172c3.793,0,7.412-1.824,7.412-6.088c0-2.616-1.295-4.588-3.854-5.322c1.825-0.881,2.854-2.323,2.854-4.381
	c0-3.91-2.706-5.205-6.706-5.205h-9.879V406.233z M459.801,396.881h5.026c1.972,0,3.323,0.854,3.323,3
	c0,2.175-1.587,2.765-3.41,2.765h-4.939"/>
<path d="M480.463,388.825h4.323c1.645,0,3.174,0.41,3.174,2.41c0,1.765-1.207,2.5-2.822,2.5h-4.675V388.825L480.463,388.825z
	 M475.843,406.233h10.175c3.794,0,7.41-1.824,7.41-6.088c0-2.616-1.294-4.588-3.852-5.322c1.823-0.881,2.853-2.323,2.853-4.381
	c0-3.91-2.704-5.205-6.704-5.205h-9.882V406.233z M480.463,396.881h5.026c1.971,0,3.322,0.854,3.322,3
	c0,2.175-1.588,2.765-3.41,2.765h-4.938"/>
<path d="M522.764,392.291c-0.559-4.853-4.438-7.556-9.055-7.556c-6.5,0-10.32,4.852-10.32,11.085c0,6.058,3.82,10.91,10.32,10.91
	c5.146,0,8.762-3.353,9.232-8.587h-4.471c-0.352,2.764-1.939,4.705-4.762,4.705c-4.146,0-5.707-3.528-5.707-7.028
	c0-3.675,1.562-7.204,5.707-7.204c2.293,0,4.293,1.588,4.587,3.675"/>
<path d="M525.779,406.233h4.617v-8.676h8.794v-3.587h-8.794v-4.853h10.146v-3.881h-14.763"/>
<path d="M543.373,406.233h4.603v-8.676h8.784v-3.587h-8.784v-4.853h10.134v-3.881h-14.736"/>
<path d="M567.977,406.233h4.629v-8.676h8.783v-3.587h-8.783v-4.853h10.133v-3.881h-14.762"/>
<path d="M586.23,406.233h4.603v-8.676h8.784v-3.587h-8.784v-4.853h10.159v-3.881H586.23"/>
<path d="M602.633,399.249c-0.054,5.177,4.285,7.471,8.941,7.471c5.715,0,8.73-2.881,8.73-6.735c0-4.763-4.709-5.733-6.217-6.114
	c-5.265-1.354-6.27-1.561-6.27-3.177c0-1.765,1.691-2.382,3.174-2.382c2.195,0,3.994,0.646,4.153,3.176h4.444
	c0-4.853-4.021-6.763-8.387-6.763c-3.809,0-7.856,2.059-7.856,6.353c0,3.938,3.147,5.145,6.27,5.968
	c3.069,0.823,6.218,1.206,6.218,3.468c0,2.148-2.461,2.619-4.074,2.619c-2.487,0-4.656-1.09-4.656-3.883"/>
<rect x="328.076" y="373.312" fill="none" stroke="#FFFFFF" stroke-width="1.2289" stroke-miterlimit="10" width="301.998" height="43.333"/>
<path fill="#EC1B24" d="M339.911,475.895h89.999v-30h-89.999V475.895z"/>
<path fill="#FFFFFF" d="M392.874,458.593h9.729v-7.704h4.582v7.704h9.73l-7.83-7.704h5.809l9.999,10l-9.999,10h-5.809l7.83-7.703
	h-9.73v7.703h-4.582v-7.703h-9.729l7.828,7.703h-5.807l-10-10l10-10h5.807"/>
<path d="M439.195,464.916c-0.059,5.177,4.293,7.471,8.939,7.471c5.705,0,8.734-2.881,8.734-6.735c0-4.763-4.706-5.733-6.234-6.114
	c-5.266-1.354-6.263-1.561-6.263-3.177c0-1.765,1.704-2.382,3.175-2.382c2.206,0,4,0.646,4.146,3.176h4.471
	c0-4.853-4.028-6.763-8.41-6.763c-3.794,0-7.852,2.059-7.852,6.353c0,3.938,3.146,5.145,6.265,5.968
	c3.088,0.823,6.232,1.206,6.232,3.468c0,2.148-2.471,2.619-4.087,2.619c-2.472,0-4.646-1.09-4.646-3.883"/>
<path d="M464.327,454.492h4.323c1.645,0,3.174,0.41,3.174,2.41c0,1.765-1.206,2.5-2.822,2.5h-4.675V454.492L464.327,454.492z
	 M459.711,471.9h10.172c3.793,0,7.412-1.824,7.412-6.088c0-2.616-1.295-4.588-3.854-5.322c1.825-0.881,2.854-2.323,2.854-4.381
	c0-3.91-2.706-5.205-6.706-5.205h-9.879V471.9z M464.327,462.548h5.026c1.972,0,3.323,0.854,3.323,3c0,2.175-1.587,2.765-3.41,2.765
	h-4.939"/>
<path d="M484.989,454.492h4.323c1.645,0,3.174,0.41,3.174,2.41c0,1.765-1.207,2.5-2.822,2.5h-4.675V454.492L484.989,454.492z
	 M480.369,471.9h10.175c3.794,0,7.41-1.824,7.41-6.088c0-2.616-1.294-4.588-3.852-5.322c1.823-0.881,2.853-2.323,2.853-4.381
	c0-3.91-2.704-5.205-6.704-5.205h-9.882V471.9z M484.989,462.548h5.026c1.971,0,3.322,0.854,3.322,3c0,2.175-1.588,2.765-3.41,2.765
	h-4.938"/>
<path d="M527.29,457.958c-0.559-4.853-4.438-7.556-9.055-7.556c-6.5,0-10.32,4.852-10.32,11.085c0,6.058,3.82,10.91,10.32,10.91
	c5.146,0,8.762-3.353,9.232-8.587h-4.471c-0.352,2.764-1.939,4.705-4.762,4.705c-4.146,0-5.707-3.528-5.707-7.028
	c0-3.675,1.562-7.204,5.707-7.204c2.293,0,4.293,1.588,4.587,3.675"/>
<path d="M530.306,471.9h4.617v-8.676h8.794v-3.587h-8.794v-4.853h10.146v-3.881h-14.763"/>
<path d="M547.899,471.9h4.603v-8.676h8.784v-3.587h-8.784v-4.853h10.134v-3.881h-14.736"/>
<path d="M572.503,471.9h4.629v-8.676h8.783v-3.587h-8.783v-4.853h10.133v-3.881h-14.762"/>
<path d="M590.757,471.9h4.603v-8.676h8.784v-3.587h-8.784v-4.853h10.159v-3.881h-14.762"/>
<path d="M607.159,464.916c-0.054,5.177,4.285,7.471,8.941,7.471c5.715,0,8.73-2.881,8.73-6.735c0-4.763-4.709-5.733-6.217-6.114
	c-5.265-1.354-6.27-1.561-6.27-3.177c0-1.765,1.691-2.382,3.174-2.382c2.195,0,3.994,0.646,4.153,3.176h4.444
	c0-4.853-4.021-6.763-8.387-6.763c-3.809,0-7.856,2.059-7.856,6.353c0,3.938,3.147,5.145,6.27,5.968
	c3.069,0.823,6.218,1.206,6.218,3.468c0,2.148-2.461,2.619-4.074,2.619c-2.487,0-4.656-1.09-4.656-3.883"/>
<rect x="332.602" y="438.979" fill="none" stroke="#FFFFFF" stroke-width="1.2289" stroke-miterlimit="10" width="301.998" height="43.333"/>
<g>
</g>
<g>
</g>
<g>
</g>
<g>
</g>
<g>
</g>
<g>
</g>
</svg>
