<?xml version="1.0" encoding="utf-8"?>
<!-- Generator: Adobe Illustrator 16.0.4, SVG Export Plug-In . SVG Version: 6.00 Build 0)  -->
<!DOCTYPE svg PUBLIC "-//W3C//DTD SVG 1.1//EN" "http://www.w3.org/Graphics/SVG/1.1/DTD/svg11.dtd">
<svg version="1.1" id="Vrstva_1" xmlns="http://www.w3.org/2000/svg" xmlns:xlink="http://www.w3.org/1999/xlink" x="0px" y="0px"
	 width="793.7px" height="793.7px" viewBox="0 0 793.7 793.7" enable-background="new 0 0 793.7 793.7" xml:space="preserve">
<path fill="none" stroke="#E42271" stroke-miterlimit="10" d="M63.585,270.401h40.265v-31.879h18.96v31.879h40.264l-32.404-31.879
	h24.041l41.381,41.382l-41.381,41.379H130.67l32.404-31.879H122.81v31.879h-18.96v-31.879H63.585l32.394,31.879h-24.03
	l-41.38-41.379l41.38-41.382h24.03L63.585,270.401z"/>
<rect x="18.525" y="227.956" fill="none" stroke="#E42271" stroke-miterlimit="10" width="189.61" height="103.896"/>
<path fill="none" stroke="#E42271" stroke-miterlimit="10" d="M253.196,270.401h40.265v-31.879h18.96v31.879h40.264l-32.405-31.879
	h24.041l41.381,41.382l-41.381,41.379H320.28l32.404-31.879H312.42v31.879h-18.96v-31.879h-40.265l32.394,31.879h-24.03
	l-41.38-41.379l41.38-41.382h24.03L253.196,270.401z"/>
<rect x="208.136" y="227.956" fill="none" stroke="#E42271" stroke-miterlimit="10" width="189.611" height="103.896"/>
<path fill="none" stroke="#E42271" stroke-miterlimit="10" d="M442.807,270.401h40.264v-31.879h18.961v31.879h40.264l-32.404-31.879
	h24.041l41.383,41.382l-41.383,41.379h-24.041l32.404-31.879h-40.264v31.879h-18.961v-31.879h-40.266l32.395,31.879H451.17
	l-41.381-41.379l41.381-41.382H475.2L442.807,270.401z"/>
<rect x="397.747" y="227.956" fill="none" stroke="#E42271" stroke-miterlimit="10" width="189.609" height="103.896"/>
<path fill="none" stroke="#E42271" stroke-miterlimit="10" d="M632.417,270.401h40.266v-31.879h18.959v31.879h40.266l-32.404-31.879
	h24.041l41.381,41.382l-41.381,41.379h-24.041l32.404-31.879h-40.266v31.879h-18.959v-31.879h-40.266l32.395,31.879H640.78
	l-41.379-41.379l41.379-41.382h24.031L632.417,270.401z"/>
<rect x="587.356" y="227.956" fill="none" stroke="#E42271" stroke-miterlimit="10" width="189.609" height="103.896"/>
<path fill="none" stroke="#E42271" stroke-miterlimit="10" d="M63.585,374.297h40.265v-31.879h18.96v31.879h40.264l-32.404-31.879
	h24.041l41.381,41.382l-41.381,41.38H130.67l32.404-31.88H122.81v31.88h-18.96V393.3H63.585l32.394,31.88h-24.03l-41.38-41.38
	l41.38-41.382h24.03L63.585,374.297z"/>
<rect x="18.525" y="331.852" fill="none" stroke="#E42271" stroke-miterlimit="10" width="189.61" height="103.895"/>
<path fill="none" stroke="#E42271" stroke-miterlimit="10" d="M253.196,374.297h40.265v-31.879h18.96v31.879h40.264l-32.405-31.879
	h24.041l41.381,41.382l-41.381,41.38H320.28l32.404-31.88H312.42v31.88h-18.96V393.3h-40.265l32.394,31.88h-24.03l-41.38-41.38
	l41.38-41.382h24.03L253.196,374.297z"/>
<rect x="208.136" y="331.852" fill="none" stroke="#E42271" stroke-miterlimit="10" width="189.611" height="103.895"/>
<path fill="none" stroke="#E42271" stroke-miterlimit="10" d="M442.807,374.297h40.264v-31.879h18.961v31.879h40.264l-32.404-31.879
	h24.041l41.383,41.382l-41.383,41.38h-24.041l32.404-31.88h-40.264v31.88h-18.961V393.3h-40.266l32.395,31.88H451.17L409.79,383.8
	l41.381-41.382H475.2L442.807,374.297z"/>
<rect x="397.747" y="331.852" fill="none" stroke="#E42271" stroke-miterlimit="10" width="189.609" height="103.895"/>
<path fill="none" stroke="#E42271" stroke-miterlimit="10" d="M632.417,374.297h40.266v-31.879h18.959v31.879h40.266l-32.404-31.879
	h24.041l41.381,41.382l-41.381,41.38h-24.041l32.404-31.88h-40.266v31.88h-18.959V393.3h-40.266l32.395,31.88H640.78l-41.379-41.38
	l41.379-41.382h24.031L632.417,374.297z"/>
<rect x="587.356" y="331.852" fill="none" stroke="#E42271" stroke-miterlimit="10" width="189.609" height="103.895"/>
<path fill="none" stroke="#E42271" stroke-miterlimit="10" d="M63.585,62.61h40.265V30.731h18.96V62.61h40.264L130.67,30.731h24.041
	l41.381,41.382l-41.381,41.38H130.67l32.404-31.88H122.81v31.88h-18.96v-31.88H63.585l32.394,31.88h-24.03l-41.38-41.38
	l41.38-41.382h24.03L63.585,62.61z"/>
<rect x="18.525" y="20.165" fill="none" stroke="#E42271" stroke-miterlimit="10" width="189.61" height="103.896"/>
<path fill="none" stroke="#E42271" stroke-miterlimit="10" d="M253.196,62.61h40.265V30.731h18.96V62.61h40.264L320.28,30.731
	h24.041l41.381,41.382l-41.381,41.38H320.28l32.404-31.88H312.42v31.88h-18.96v-31.88h-40.265l32.394,31.88h-24.03l-41.38-41.38
	l41.38-41.382h24.03L253.196,62.61z"/>
<rect x="208.136" y="20.165" fill="none" stroke="#E42271" stroke-miterlimit="10" width="189.611" height="103.896"/>
<path fill="none" stroke="#E42271" stroke-miterlimit="10" d="M442.807,62.61h40.264V30.731h18.961V62.61h40.264l-32.404-31.879
	h24.041l41.383,41.382l-41.383,41.38h-24.041l32.404-31.88h-40.264v31.88h-18.961v-31.88h-40.266l32.395,31.88H451.17l-41.381-41.38
	l41.381-41.382H475.2L442.807,62.61z"/>
<rect x="397.747" y="20.165" fill="none" stroke="#E42271" stroke-miterlimit="10" width="189.609" height="103.896"/>
<path fill="none" stroke="#E42271" stroke-miterlimit="10" d="M632.417,62.61h40.266V30.731h18.959V62.61h40.266l-32.404-31.879
	h24.041l41.381,41.382l-41.381,41.38h-24.041l32.404-31.88h-40.266v31.88h-18.959v-31.88h-40.266l32.395,31.88H640.78l-41.379-41.38
	l41.379-41.382h24.031L632.417,62.61z"/>
<rect x="587.356" y="20.165" fill="none" stroke="#E42271" stroke-miterlimit="10" width="189.609" height="103.896"/>
<path fill="none" stroke="#E42271" stroke-miterlimit="10" d="M63.585,166.505h40.265v-31.879h18.96v31.879h40.264l-32.404-31.879
	h24.041l41.381,41.382l-41.381,41.38H130.67l32.404-31.88H122.81v31.88h-18.96v-31.88H63.585l32.394,31.88h-24.03l-41.38-41.38
	l41.38-41.382h24.03L63.585,166.505z"/>
<rect x="18.525" y="124.06" fill="none" stroke="#E42271" stroke-miterlimit="10" width="189.61" height="103.896"/>
<path fill="none" stroke="#E42271" stroke-miterlimit="10" d="M253.196,166.505h40.265v-31.879h18.96v31.879h40.264l-32.405-31.879
	h24.041l41.381,41.382l-41.381,41.38H320.28l32.404-31.88H312.42v31.88h-18.96v-31.88h-40.265l32.394,31.88h-24.03l-41.38-41.38
	l41.38-41.382h24.03L253.196,166.505z"/>
<rect x="208.136" y="124.06" fill="none" stroke="#E42271" stroke-miterlimit="10" width="189.611" height="103.896"/>
<path fill="none" stroke="#E42271" stroke-miterlimit="10" d="M442.807,166.505h40.264v-31.879h18.961v31.879h40.264l-32.404-31.879
	h24.041l41.383,41.382l-41.383,41.38h-24.041l32.404-31.88h-40.264v31.88h-18.961v-31.88h-40.266l32.395,31.88H451.17l-41.381-41.38
	l41.381-41.382H475.2L442.807,166.505z"/>
<rect x="397.747" y="124.06" fill="none" stroke="#E42271" stroke-miterlimit="10" width="189.609" height="103.896"/>
<path fill="none" stroke="#E42271" stroke-miterlimit="10" d="M632.417,166.505h40.266v-31.879h18.959v31.879h40.266l-32.404-31.879
	h24.041l41.381,41.382l-41.381,41.38h-24.041l32.404-31.88h-40.266v31.88h-18.959v-31.88h-40.266l32.395,31.88H640.78l-41.379-41.38
	l41.379-41.382h24.031L632.417,166.505z"/>
<rect x="587.356" y="124.06" fill="none" stroke="#E42271" stroke-miterlimit="10" width="189.609" height="103.896"/>
<path fill="none" stroke="#E42271" stroke-miterlimit="10" d="M63.585,478.192h40.265v-31.879h18.96v31.879h40.264l-32.404-31.879
	h24.041l41.381,41.382l-41.381,41.38H130.67l32.404-31.88H122.81v31.88h-18.96v-31.88H63.585l32.394,31.88h-24.03l-41.38-41.38
	l41.38-41.382h24.03L63.585,478.192z"/>
<rect x="18.525" y="435.747" fill="none" stroke="#E42271" stroke-miterlimit="10" width="189.61" height="103.896"/>
<path fill="none" stroke="#E42271" stroke-miterlimit="10" d="M253.196,478.192h40.265v-31.879h18.96v31.879h40.264l-32.405-31.879
	h24.041l41.381,41.382l-41.381,41.38H320.28l32.404-31.88H312.42v31.88h-18.96v-31.88h-40.265l32.394,31.88h-24.03l-41.38-41.38
	l41.38-41.382h24.03L253.196,478.192z"/>
<rect x="208.136" y="435.747" fill="none" stroke="#E42271" stroke-miterlimit="10" width="189.611" height="103.896"/>
<path fill="none" stroke="#E42271" stroke-miterlimit="10" d="M442.807,478.192h40.264v-31.879h18.961v31.879h40.264l-32.404-31.879
	h24.041l41.383,41.382l-41.383,41.38h-24.041l32.404-31.88h-40.264v31.88h-18.961v-31.88h-40.266l32.395,31.88H451.17l-41.381-41.38
	l41.381-41.382H475.2L442.807,478.192z"/>
<rect x="397.747" y="435.747" fill="none" stroke="#E42271" stroke-miterlimit="10" width="189.609" height="103.896"/>
<path fill="none" stroke="#E42271" stroke-miterlimit="10" d="M632.417,478.192h40.266v-31.879h18.959v31.879h40.266l-32.404-31.879
	h24.041l41.381,41.382l-41.381,41.38h-24.041l32.404-31.88h-40.266v31.88h-18.959v-31.88h-40.266l32.395,31.88H640.78l-41.379-41.38
	l41.379-41.382h24.031L632.417,478.192z"/>
<rect x="587.356" y="435.747" fill="none" stroke="#E42271" stroke-miterlimit="10" width="189.609" height="103.896"/>
<path fill="none" stroke="#E42271" stroke-miterlimit="10" d="M63.585,582.087h40.265v-31.879h18.96v31.879h40.264l-32.404-31.879
	h24.041l41.381,41.382l-41.381,41.38H130.67l32.404-31.88H122.81v31.88h-18.96v-31.88H63.585l32.394,31.88h-24.03l-41.38-41.38
	l41.38-41.382h24.03L63.585,582.087z"/>
<rect x="18.525" y="539.642" fill="none" stroke="#E42271" stroke-miterlimit="10" width="189.61" height="103.896"/>
<path fill="none" stroke="#E42271" stroke-miterlimit="10" d="M253.196,582.087h40.265v-31.879h18.96v31.879h40.264l-32.405-31.879
	h24.041l41.381,41.382l-41.381,41.38H320.28l32.404-31.88H312.42v31.88h-18.96v-31.88h-40.265l32.394,31.88h-24.03l-41.38-41.38
	l41.38-41.382h24.03L253.196,582.087z"/>
<rect x="208.136" y="539.642" fill="none" stroke="#E42271" stroke-miterlimit="10" width="189.611" height="103.896"/>
<path fill="none" stroke="#E42271" stroke-miterlimit="10" d="M442.807,582.087h40.264v-31.879h18.961v31.879h40.264l-32.404-31.879
	h24.041l41.383,41.382l-41.383,41.38h-24.041l32.404-31.88h-40.264v31.88h-18.961v-31.88h-40.266l32.395,31.88H451.17l-41.381-41.38
	l41.381-41.382H475.2L442.807,582.087z"/>
<rect x="397.747" y="539.642" fill="none" stroke="#E42271" stroke-miterlimit="10" width="189.609" height="103.896"/>
<path fill="none" stroke="#E42271" stroke-miterlimit="10" d="M632.417,582.087h40.266v-31.879h18.959v31.879h40.266l-32.404-31.879
	h24.041l41.381,41.382l-41.381,41.38h-24.041l32.404-31.88h-40.266v31.88h-18.959v-31.88h-40.266l32.395,31.88H640.78l-41.379-41.38
	l41.379-41.382h24.031L632.417,582.087z"/>
<rect x="587.356" y="539.642" fill="none" stroke="#E42271" stroke-miterlimit="10" width="189.609" height="103.896"/>
<path fill="none" stroke="#E42271" stroke-miterlimit="10" d="M63.585,685.983h40.265v-31.879h18.96v31.879h40.264l-32.404-31.879
	h24.041l41.381,41.382l-41.381,41.38H130.67l32.404-31.88H122.81v31.88h-18.96v-31.88H63.585l32.394,31.88h-24.03l-41.38-41.38
	l41.38-41.382h24.03L63.585,685.983z"/>
<rect x="18.525" y="643.538" fill="none" stroke="#E42271" stroke-miterlimit="10" width="189.61" height="103.896"/>
<path fill="none" stroke="#E42271" stroke-miterlimit="10" d="M253.196,685.983h40.265v-31.879h18.96v31.879h40.264l-32.405-31.879
	h24.041l41.381,41.382l-41.381,41.38H320.28l32.404-31.88H312.42v31.88h-18.96v-31.88h-40.265l32.394,31.88h-24.03l-41.38-41.38
	l41.38-41.382h24.03L253.196,685.983z"/>
<rect x="208.136" y="643.538" fill="none" stroke="#E42271" stroke-miterlimit="10" width="189.611" height="103.896"/>
<path fill="none" stroke="#E42271" stroke-miterlimit="10" d="M442.807,685.983h40.264v-31.879h18.961v31.879h40.264l-32.404-31.879
	h24.041l41.383,41.382l-41.383,41.38h-24.041l32.404-31.88h-40.264v31.88h-18.961v-31.88h-40.266l32.395,31.88H451.17l-41.381-41.38
	l41.381-41.382H475.2L442.807,685.983z"/>
<rect x="397.747" y="643.538" fill="none" stroke="#E42271" stroke-miterlimit="10" width="189.609" height="103.896"/>
<path fill="none" stroke="#E42271" stroke-miterlimit="10" d="M632.417,685.983h40.266v-31.879h18.959v31.879h40.266l-32.404-31.879
	h24.041l41.381,41.382l-41.381,41.38h-24.041l32.404-31.88h-40.266v31.88h-18.959v-31.88h-40.266l32.395,31.88H640.78l-41.379-41.38
	l41.379-41.382h24.031L632.417,685.983z"/>
<rect x="587.356" y="643.538" fill="none" stroke="#E42271" stroke-miterlimit="10" width="189.609" height="103.896"/>
</svg>
