<?xml version="1.0" encoding="utf-8"?>
<!-- Generator: Adobe Illustrator 16.0.4, SVG Export Plug-In . SVG Version: 6.00 Build 0)  -->
<!DOCTYPE svg PUBLIC "-//W3C//DTD SVG 1.1//EN" "http://www.w3.org/Graphics/SVG/1.1/DTD/svg11.dtd">
<svg version="1.1" id="Vrstva_1" xmlns="http://www.w3.org/2000/svg" xmlns:xlink="http://www.w3.org/1999/xlink" x="0px" y="0px"
	 width="595.281px" height="841.89px" viewBox="0 0 595.281 841.89" enable-background="new 0 0 595.281 841.89"
	 xml:space="preserve">
<circle fill="#FFFFFF" cx="150.698" cy="217.095" r="64"/>
<g>
	<path fill="#E7511E" d="M140.647,245.762h1.493l2.112,7.081h0.025l2.118-7.081h1.493l-3.075,9.301h-1.098L140.647,245.762z"/>
	<path fill="#E7511E" d="M148.883,245.762h1.41v7.968h4.53v1.333h-5.939L148.883,245.762L148.883,245.762z"/>
	<path fill="#E7511E" d="M156.149,245.762h1.41v4.79h0.026l3.828-4.79h1.671l-2.979,3.668l3.292,5.633h-1.671l-2.533-4.549
		l-1.633,1.717v2.832h-1.41L156.149,245.762L156.149,245.762z"/>
</g>
<g>
	<path fill="#E7511E" d="M141.67,195.026v-7.618l7.104-5.182h7.172v50.033h-7.172V189.81L141.67,195.026z"/>
</g>
<circle fill="#FFFFFF" cx="292.17" cy="217.095" r="64.001"/>
<g>
	<path fill="#E7511E" d="M282.119,245.762h1.493l2.112,7.081h0.025l2.118-7.081h1.493l-3.075,9.301h-1.098L282.119,245.762z"/>
	<path fill="#E7511E" d="M290.354,245.762h1.41v7.968h4.53v1.333h-5.939L290.354,245.762L290.354,245.762z"/>
	<path fill="#E7511E" d="M297.621,245.762h1.41v4.79h0.025l3.828-4.79h1.671l-2.979,3.668l3.293,5.633h-1.672l-2.533-4.549
		l-1.633,1.717v2.832h-1.41V245.762z"/>
</g>
<g>
	<path fill="#E7511E" d="M278.886,225.499l19.526-24.433c0.756-0.983,1.271-1.898,1.545-2.745c0.183-0.801,0.273-1.556,0.273-2.265
		c0-1.876-0.583-3.512-1.75-4.907c-1.213-1.396-2.929-2.116-5.147-2.162c-1.968,0-3.604,0.629-4.907,1.887
		c-1.351,1.259-2.15,3.032-2.402,5.319h-7.138c0.183-4.163,1.578-7.606,4.188-10.329c2.631-2.653,5.868-4.003,9.712-4.049
		c4.301,0.046,7.789,1.418,10.466,4.117c2.723,2.677,4.105,6.074,4.151,10.192c0,3.294-1.007,6.223-3.021,8.785l-16.094,20.178
		h19.114v7.172h-28.517L278.886,225.499L278.886,225.499z"/>
</g>
<circle fill="#FFFFFF" cx="431.06" cy="217.095" r="64"/>
<g>
	<path fill="#E7511E" d="M421.007,245.762h1.492l2.113,7.081h0.023l2.119-7.081h1.492l-3.074,9.301h-1.098L421.007,245.762z"/>
	<path fill="#E7511E" d="M429.244,245.762h1.41v7.968h4.527v1.333h-5.938V245.762z"/>
	<path fill="#E7511E" d="M436.509,245.762h1.41v4.79h0.025l3.826-4.79h1.674l-2.98,3.668l3.293,5.633h-1.672l-2.533-4.549
		l-1.633,1.717v2.832h-1.41V245.762z"/>
</g>
<g>
	<path fill="#E7511E" d="M427.865,203.296h2.471c2.447,0,4.346-0.675,5.695-2.024c1.35-1.304,2.023-2.997,2.023-5.079
		c-0.045-2.104-0.742-3.831-2.092-5.182c-1.352-1.304-3.09-1.979-5.217-2.024c-1.533,0-2.93,0.492-4.188,1.476
		c-1.326,0.983-2.219,2.505-2.678,4.563h-7.172c0.367-3.706,1.865-6.828,4.496-9.368c2.584-2.517,5.674-3.797,9.266-3.843
		c4.553,0.046,8.166,1.498,10.844,4.357c2.562,2.792,3.865,6.086,3.912,9.884c0,1.921-0.344,3.774-1.029,5.559
		c-0.801,1.784-2.23,3.375-4.289,4.771c2.104,1.372,3.625,3.02,4.562,4.941c0.895,1.922,1.34,3.935,1.34,6.039
		c-0.047,4.69-1.5,8.386-4.357,11.084c-2.814,2.769-6.43,4.175-10.844,4.222c-3.41,0-6.43-1.099-9.061-3.295
		c-2.631-2.196-4.336-5.376-5.113-9.54h7.172c0.641,1.671,1.545,3.021,2.711,4.05c1.189,1.075,2.77,1.612,4.736,1.612
		c2.104,0,3.877-0.72,5.318-2.161c1.463-1.35,2.219-3.271,2.264-5.766c-0.045-2.539-0.801-4.507-2.264-5.902
		c-1.441-1.35-3.271-2.024-5.49-2.024h-3.02v-6.35H427.865z"/>
</g>
<circle fill="#FFFFFF" cx="150.698" cy="356.103" r="64"/>
<g>
	<path fill="#E7511E" d="M140.647,384.771h1.493l2.112,7.08h0.025l2.118-7.08h1.493l-3.075,9.301h-1.098L140.647,384.771z"/>
	<path fill="#E7511E" d="M148.883,384.771h1.41v7.968h4.53v1.333h-5.939L148.883,384.771L148.883,384.771z"/>
	<path fill="#E7511E" d="M156.149,384.771h1.41v4.789h0.026l3.828-4.789h1.671l-2.979,3.668l3.292,5.633h-1.671l-2.533-4.549
		l-1.633,1.717v2.832h-1.41L156.149,384.771L156.149,384.771z"/>
</g>
<g>
	<path fill="#E7511E" d="M136.008,357.061l16.712-35.825h7.995l-16.918,35.825h13.075v-14.378h7.172v14.378h3.98v6.762h-3.98v7.445
		h-7.172v-7.445h-20.864V357.061z"/>
</g>
<circle fill="#FFFFFF" cx="292.17" cy="356.103" r="64.001"/>
<g>
	<path fill="#E7511E" d="M282.119,384.771h1.493l2.112,7.08h0.025l2.118-7.08h1.493l-3.075,9.301h-1.098L282.119,384.771z"/>
	<path fill="#E7511E" d="M290.354,384.771h1.41v7.968h4.53v1.333h-5.939L290.354,384.771L290.354,384.771z"/>
	<path fill="#E7511E" d="M297.621,384.771h1.41v4.789h0.025l3.828-4.789h1.671l-2.979,3.668l3.293,5.633h-1.672l-2.533-4.549
		l-1.633,1.717v2.832h-1.41V384.771z"/>
</g>
<g>
	<path fill="#E7511E" d="M280.121,321.235h26.664v7.172h-19.903v11.325c2.333-1.83,4.998-2.746,7.995-2.746
		c1.922,0.047,3.684,0.39,5.285,1.029c1.51,0.709,2.733,1.578,3.672,2.607c1.396,1.373,2.401,2.963,3.021,4.771
		c0.319,0.983,0.549,2.186,0.687,3.604c0.137,1.44,0.205,3.215,0.205,5.319c0,3.249-0.229,5.741-0.686,7.479
		c-0.48,1.716-1.282,3.238-2.402,4.564c-0.984,1.304-2.414,2.493-4.289,3.568c-1.83,1.121-4.003,1.703-6.521,1.75
		c-3.386,0-6.486-1.007-9.3-3.021c-2.86-2.06-4.633-5.389-5.319-9.985h7.173c0.777,3.843,3.168,5.788,7.172,5.833
		c1.716,0,3.088-0.343,4.118-1.029c0.983-0.662,1.669-1.531,2.06-2.606c0.412-1.075,0.662-2.242,0.754-3.501
		c0.047-1.235,0.068-2.438,0.068-3.604c0.047-2.858-0.4-5.182-1.338-6.967c-0.504-0.846-1.247-1.521-2.23-2.023
		c-0.984-0.412-2.208-0.617-3.672-0.617c-1.305,0-2.494,0.297-3.569,0.892c-1.075,0.618-2.036,1.693-2.882,3.227h-6.761
		L280.121,321.235L280.121,321.235z"/>
</g>
<circle fill="#FFFFFF" cx="431.06" cy="356.103" r="64"/>
<g>
	<path fill="#E7511E" d="M421.007,384.771h1.492l2.113,7.08h0.023l2.119-7.08h1.492l-3.074,9.301h-1.098L421.007,384.771z"/>
	<path fill="#E7511E" d="M429.244,384.771h1.41v7.968h4.527v1.333h-5.938V384.771z"/>
	<path fill="#E7511E" d="M436.509,384.771h1.41v4.789h0.025l3.826-4.789h1.674l-2.98,3.668l3.293,5.633h-1.672l-2.533-4.549
		l-1.633,1.717v2.832h-1.41V384.771z"/>
</g>
<g>
	<path fill="#E7511E" d="M441.589,320.72c0.023,0-0.084,0.246-0.324,0.738s-0.566,1.161-0.979,2.007
		c-0.412,0.847-0.893,1.819-1.441,2.917c-0.549,1.1-1.127,2.254-1.732,3.466c-0.605,1.213-1.225,2.438-1.854,3.672
		c-0.629,1.235-1.234,2.414-1.818,3.535s-1.115,2.14-1.596,3.055s-0.881,1.646-1.201,2.195c0.662-0.389,1.412-0.623,2.248-0.703
		c0.834-0.079,1.801-0.098,2.898-0.052c1.578,0.046,2.957,0.32,4.135,0.823c1.178,0.504,2.191,1.133,3.037,1.888
		s1.551,1.597,2.111,2.522c0.559,0.926,1,1.83,1.32,2.711s0.543,1.704,0.668,2.471c0.127,0.768,0.189,1.367,0.189,1.802
		c0,0.138,0,0.39,0,0.756c0,0.365,0,0.771,0,1.218c0,0.446-0.006,0.897-0.018,1.354c-0.012,0.458-0.029,0.848-0.053,1.167
		c-0.021,0.16-0.098,0.578-0.223,1.253c-0.125,0.676-0.355,1.477-0.688,2.401c-0.332,0.927-0.807,1.922-1.424,2.986
		c-0.617,1.062-1.43,2.069-2.436,3.02c-1.008,0.949-2.23,1.769-3.672,2.453c-1.441,0.687-3.158,1.109-5.148,1.271
		c-2.082,0.184-3.924,0.046-5.525-0.411c-1.6-0.457-2.984-1.109-4.15-1.956c-1.166-0.848-2.141-1.824-2.916-2.936
		c-0.779-1.108-1.392-2.247-1.836-3.414c-0.447-1.167-0.744-2.287-0.894-3.362s-0.179-1.99-0.086-2.745
		c0.138-1.12,0.286-2.121,0.446-3.003c0.16-0.881,0.349-1.722,0.565-2.521c0.218-0.801,0.464-1.59,0.737-2.368
		c0.273-0.776,0.595-1.624,0.961-2.539c0.092-0.229,0.344-0.771,0.754-1.63c0.412-0.857,0.922-1.916,1.527-3.175
		c0.605-1.258,1.287-2.643,2.043-4.152c0.754-1.509,1.51-3.042,2.266-4.599c1.783-3.614,3.785-7.652,6.004-12.113L441.589,320.72
		L441.589,320.72z M440.15,357.335c0-0.869-0.035-1.83-0.105-2.882c-0.068-1.053-0.326-2.054-0.77-3.003
		c-0.447-0.949-1.174-1.769-2.182-2.454c-1.006-0.687-2.436-1.098-4.289-1.235c-0.869-0.067-1.658,0.023-2.367,0.274
		c-0.709,0.252-1.338,0.596-1.889,1.03c-0.549,0.435-1.021,0.932-1.424,1.491c-0.4,0.561-0.732,1.115-0.994,1.664
		c-0.264,0.551-0.453,1.06-0.566,1.527c-0.113,0.47-0.172,0.83-0.172,1.081c0,0.572,0.012,1.207,0.035,1.904
		c0.021,0.697,0.096,1.396,0.223,2.094s0.338,1.372,0.635,2.023c0.297,0.652,0.721,1.23,1.27,1.733
		c0.551,0.503,1.254,0.915,2.111,1.235c0.857,0.319,1.928,0.479,3.209,0.479c1.029,0.022,1.926-0.107,2.693-0.395
		c0.766-0.287,1.418-0.652,1.955-1.1c0.537-0.445,0.979-0.942,1.32-1.493c0.344-0.549,0.613-1.086,0.809-1.611
		c0.193-0.526,0.324-1.001,0.395-1.424C440.115,357.856,440.15,357.542,440.15,357.335z"/>
</g>
<circle fill="#FFFFFF" cx="150.698" cy="497.111" r="64"/>
<g>
	<path fill="#E7511E" d="M140.647,525.781h1.493l2.112,7.08h0.025l2.118-7.08h1.493l-3.075,9.301h-1.098L140.647,525.781z"/>
	<path fill="#E7511E" d="M148.883,525.781h1.41v7.967h4.53v1.334h-5.939L148.883,525.781L148.883,525.781z"/>
	<path fill="#E7511E" d="M156.149,525.781h1.41v4.789h0.026l3.828-4.789h1.671l-2.979,3.668l3.292,5.633h-1.671l-2.533-4.549
		l-1.633,1.717v2.832h-1.41L156.149,525.781L156.149,525.781z"/>
</g>
<g>
	<path fill="#E7511E" d="M138.719,462.244h28.482v7.172l-16.952,42.861h-7.996l16.918-42.861h-13.28v7.242h-7.172V462.244z"/>
</g>
<circle fill="#FFFFFF" cx="292.17" cy="497.112" r="64.001"/>
<g>
	<path fill="#E7511E" d="M282.119,525.781h1.493l2.112,7.08h0.025l2.118-7.08h1.493l-3.075,9.301h-1.098L282.119,525.781z"/>
	<path fill="#E7511E" d="M290.354,525.781h1.41v7.967h4.53v1.334h-5.939L290.354,525.781L290.354,525.781z"/>
	<path fill="#E7511E" d="M297.621,525.781h1.41v4.789h0.025l3.828-4.789h1.671l-2.979,3.668l3.293,5.633h-1.672l-2.533-4.549
		l-1.633,1.717v2.832h-1.41V525.781z"/>
</g>
<g>
	<path fill="#E7511E" d="M278.233,497.658c0.046-4.826,2.013-8.578,5.902-11.254c-1.487-1.307-2.653-2.805-3.5-4.496
		c-0.983-1.578-1.476-3.455-1.476-5.629c0.046-4.162,1.452-7.605,4.221-10.328c2.608-2.699,5.972-4.072,10.089-4.117
		c4.188,0.045,7.607,1.418,10.261,4.117c2.678,2.723,4.038,6.166,4.084,10.328c0,2.174-0.445,4.051-1.339,5.629
		c-0.938,1.691-2.149,3.189-3.638,4.496c3.89,2.676,5.855,6.428,5.902,11.254c-0.047,4.508-1.521,8.111-4.427,10.811
		c-2.95,2.77-6.566,4.174-10.845,4.223c-4.255-0.049-7.812-1.453-10.672-4.223C279.801,505.769,278.279,502.166,278.233,497.658z
		 M285.406,497.589c0.045,2.289,0.869,4.164,2.471,5.629c1.532,1.533,3.396,2.299,5.593,2.299c2.266,0,4.164-0.766,5.698-2.299
		c1.555-1.465,2.354-3.34,2.4-5.629c-0.046-2.332-0.847-4.23-2.4-5.695c-1.534-1.441-3.433-2.186-5.698-2.23
		c-2.196,0.047-4.061,0.789-5.593,2.23C286.275,493.357,285.451,495.257,285.406,497.589z M286.332,476.142
		c0.046,2.312,0.79,4.072,2.23,5.285c1.419,1.258,3.055,1.889,4.907,1.889c1.922,0,3.592-0.631,5.011-1.889
		c1.395-1.213,2.115-2.975,2.162-5.285c-0.047-2.379-0.768-4.174-2.162-5.387c-1.419-1.168-3.089-1.75-5.011-1.75
		c-1.853,0-3.488,0.582-4.907,1.75C287.122,471.968,286.378,473.763,286.332,476.142z"/>
</g>
<circle fill="#FFFFFF" cx="431.06" cy="497.111" r="64"/>
<g>
	<path fill="#E7511E" d="M421.007,525.781h1.492l2.113,7.08h0.023l2.119-7.08h1.492l-3.074,9.301h-1.098L421.007,525.781z"/>
	<path fill="#E7511E" d="M429.244,525.781h1.41v7.967h4.527v1.334h-5.938V525.781z"/>
	<path fill="#E7511E" d="M436.509,525.781h1.41v4.789h0.025l3.826-4.789h1.674l-2.98,3.668l3.293,5.633h-1.672l-2.533-4.549
		l-1.633,1.717v2.832h-1.41V525.781z"/>
</g>
<g>
	<path fill="#E7511E" d="M422.921,512.277c-0.021,0,0.172-0.416,0.584-1.252c0.412-0.834,0.949-1.916,1.613-3.242
		c0.664-1.328,1.406-2.805,2.229-4.428c0.824-1.623,1.637-3.227,2.438-4.805s1.551-3.031,2.248-4.357s1.264-2.367,1.699-3.123
		c-0.664,0.389-1.412,0.623-2.248,0.703s-1.803,0.098-2.9,0.053c-1.51-0.047-2.83-0.32-3.963-0.824s-2.109-1.133-2.936-1.887
		c-0.822-0.756-1.51-1.598-2.059-2.523s-0.989-1.83-1.32-2.711c-0.332-0.881-0.572-1.703-0.721-2.471
		c-0.149-0.768-0.224-1.367-0.224-1.801c0-0.139-0.006-0.391-0.019-0.756c-0.012-0.365-0.016-0.771-0.016-1.219
		c0-0.445,0.004-0.896,0.016-1.355c0.013-0.457,0.041-0.846,0.087-1.166c0.022-0.16,0.097-0.566,0.223-1.219
		c0.126-0.65,0.36-1.436,0.704-2.352c0.344-0.914,0.823-1.893,1.441-2.934c0.617-1.041,1.424-2.02,2.418-2.936
		c0.996-0.914,2.219-1.703,3.672-2.367s3.174-1.086,5.166-1.27c2.08-0.184,3.916-0.059,5.506,0.377
		c1.592,0.436,2.957,1.062,4.104,1.889c1.143,0.822,2.092,1.783,2.848,2.881c0.754,1.1,1.344,2.215,1.768,3.348
		s0.703,2.23,0.842,3.295c0.137,1.062,0.16,1.973,0.066,2.729c-0.137,1.121-0.285,2.121-0.445,3.002s-0.35,1.723-0.564,2.521
		c-0.219,0.801-0.465,1.592-0.738,2.369c-0.273,0.775-0.596,1.623-0.961,2.539c-0.092,0.252-0.338,0.801-0.736,1.646
		c-0.402,0.846-0.904,1.881-1.512,3.105c-0.605,1.223-1.27,2.584-1.99,4.082c-0.721,1.5-1.457,3.004-2.213,4.514
		c-1.762,3.568-3.729,7.549-5.902,11.941h-8.203V512.277z M424.466,476.039c0,0.893,0.045,1.877,0.137,2.951
		c0.094,1.076,0.361,2.088,0.809,3.037c0.445,0.949,1.148,1.764,2.109,2.438c0.961,0.676,2.311,1.059,4.051,1.148
		c0.867,0.047,1.656-0.062,2.365-0.324c0.709-0.264,1.34-0.613,1.889-1.047c0.549-0.436,1.023-0.928,1.424-1.477
		c0.402-0.549,0.732-1.094,0.996-1.631c0.262-0.537,0.451-1.035,0.564-1.492c0.115-0.457,0.174-0.822,0.174-1.098
		c-0.023-0.572-0.041-1.213-0.053-1.922s-0.08-1.43-0.207-2.162c-0.125-0.732-0.338-1.436-0.635-2.111
		c-0.297-0.674-0.721-1.264-1.27-1.768c-0.549-0.502-1.252-0.896-2.109-1.184c-0.859-0.285-1.928-0.395-3.209-0.326
		c-1.418,0.068-2.58,0.424-3.482,1.062c-0.904,0.643-1.619,1.352-2.146,2.129c-0.525,0.777-0.891,1.533-1.098,2.266
		C424.57,475.261,424.466,475.765,424.466,476.039z"/>
</g>
<circle fill="#FFFFFF" cx="150.698" cy="636.125" r="64"/>
<g>
	<path fill="#E7511E" d="M140.647,664.789h1.493l2.112,7.08h0.025l2.118-7.08h1.493l-3.075,9.301h-1.098L140.647,664.789z"/>
	<path fill="#E7511E" d="M148.883,664.789h1.41v7.967h4.53v1.334h-5.939L148.883,664.789L148.883,664.789z"/>
	<path fill="#E7511E" d="M156.149,664.789h1.41v4.789h0.026l3.828-4.789h1.671l-2.979,3.668l3.292,5.633h-1.671l-2.533-4.549
		l-1.633,1.717v2.832h-1.41L156.149,664.789L156.149,664.789z"/>
</g>
<g>
	<path fill="#E7511E" d="M124.803,614.052v-7.619l7.104-5.182h7.172v50.033h-7.172v-42.449L124.803,614.052z"/>
	<path fill="#E7511E" d="M154.692,615.218c0.046-4.621,1.521-8.178,4.427-10.672c2.723-2.471,5.971-3.705,9.746-3.705
		c3.889,0,7.194,1.234,9.917,3.705c2.768,2.494,4.198,6.051,4.29,10.672v22.066c-0.092,4.598-1.522,8.145-4.29,10.637
		c-2.723,2.471-6.028,3.73-9.917,3.775c-3.775-0.047-7.023-1.305-9.746-3.775c-2.905-2.492-4.381-6.039-4.427-10.637V615.218z
		 M175.9,615.666c-0.138-5.01-2.483-7.562-7.035-7.652c-4.576,0.092-6.909,2.643-7.001,7.652v21.207
		c0.092,5.057,2.425,7.605,7.001,7.65c4.552-0.045,6.897-2.596,7.035-7.65V615.666z"/>
</g>
<circle fill="#FFFFFF" cx="292.17" cy="636.125" r="64.001"/>
<g>
	<path fill="#E7511E" d="M282.119,664.789h1.493l2.112,7.08h0.025l2.118-7.08h1.493l-3.075,9.301h-1.098L282.119,664.789z"/>
	<path fill="#E7511E" d="M290.354,664.789h1.41v7.967h4.53v1.334h-5.939L290.354,664.789L290.354,664.789z"/>
	<path fill="#E7511E" d="M297.621,664.789h1.41v4.789h0.025l3.828-4.789h1.671l-2.979,3.668l3.293,5.633h-1.672l-2.533-4.549
		l-1.633,1.717v2.832h-1.41V664.789z"/>
</g>
<g>
	<path fill="#E7511E" d="M266.274,614.052v-7.619l7.104-5.182h7.172v50.033h-7.172v-42.449L266.274,614.052z"/>
	<path fill="#E7511E" d="M300.007,614.052v-7.619l7.104-5.182h7.172v50.033h-7.172v-42.449L300.007,614.052z"/>
</g>
<circle fill="#FFFFFF" cx="431.06" cy="636.125" r="64"/>
<g>
	<path fill="#E7511E" d="M421.007,664.789h1.492l2.113,7.08h0.023l2.119-7.08h1.492l-3.074,9.301h-1.098L421.007,664.789z"/>
	<path fill="#E7511E" d="M429.244,664.789h1.41v7.967h4.527v1.334h-5.938V664.789z"/>
	<path fill="#E7511E" d="M436.509,664.789h1.41v4.789h0.025l3.826-4.789h1.674l-2.98,3.668l3.293,5.633h-1.672l-2.533-4.549
		l-1.633,1.717v2.832h-1.41V664.789z"/>
</g>
<g>
	<path fill="#E7511E" d="M405.164,614.052v-7.619l7.104-5.182h7.172v50.033h-7.172v-42.449L405.164,614.052z"/>
	<path fill="#E7511E" d="M434.64,644.525l19.527-24.434c0.754-0.982,1.27-1.898,1.543-2.746c0.184-0.801,0.275-1.555,0.275-2.264
		c0-1.877-0.584-3.512-1.75-4.908c-1.215-1.395-2.93-2.115-5.148-2.162c-1.967,0-3.602,0.629-4.906,1.889
		c-1.35,1.258-2.15,3.031-2.4,5.318h-7.141c0.186-4.164,1.58-7.605,4.189-10.33c2.629-2.652,5.867-4.002,9.711-4.049
		c4.301,0.047,7.789,1.418,10.467,4.117c2.721,2.678,4.105,6.074,4.152,10.193c0,3.293-1.008,6.223-3.021,8.783l-16.094,20.18
		h19.113v7.172H434.64V644.525L434.64,644.525z"/>
</g>
<circle fill="#FFFFFF" cx="783.761" cy="217.095" r="64"/>
<g>
	<path fill="#E7511E" d="M773.71,245.762h1.492l2.111,7.081h0.025l2.119-7.081h1.492l-3.074,9.301h-1.098L773.71,245.762z"/>
	<path fill="#E7511E" d="M781.947,245.762h1.408v7.968h4.529v1.333h-5.938V245.762L781.947,245.762z"/>
	<path fill="#E7511E" d="M789.212,245.762h1.41v4.79h0.025l3.826-4.79h1.672l-2.979,3.668l3.293,5.633h-1.672l-2.533-4.549
		l-1.633,1.717v2.832h-1.41V245.762L789.212,245.762z"/>
</g>
<g>
	<path fill="#E7511E" d="M757.867,195.026v-7.618l7.104-5.182h7.172v50.033h-7.172V189.81L757.867,195.026z"/>
	<path fill="#E7511E" d="M797.433,203.296h2.473c2.445,0,4.346-0.675,5.695-2.024c1.35-1.304,2.023-2.997,2.023-5.079
		c-0.045-2.104-0.742-3.831-2.092-5.182c-1.352-1.304-3.09-1.979-5.219-2.024c-1.531,0-2.928,0.492-4.186,1.476
		c-1.328,0.983-2.219,2.505-2.678,4.563h-7.172c0.365-3.706,1.863-6.828,4.494-9.368c2.586-2.517,5.676-3.797,9.268-3.843
		c4.553,0.046,8.166,1.498,10.844,4.357c2.562,2.792,3.865,6.086,3.912,9.884c0,1.921-0.344,3.774-1.029,5.559
		c-0.801,1.784-2.23,3.375-4.289,4.771c2.104,1.372,3.625,3.02,4.562,4.941c0.893,1.922,1.34,3.935,1.34,6.039
		c-0.047,4.69-1.5,8.386-4.359,11.084c-2.812,2.769-6.428,4.175-10.844,4.222c-3.408,0-6.428-1.099-9.059-3.295
		c-2.631-2.196-4.336-5.376-5.113-9.54h7.172c0.641,1.671,1.545,3.021,2.711,4.05c1.189,1.075,2.77,1.612,4.736,1.612
		c2.104,0,3.877-0.72,5.318-2.161c1.463-1.35,2.219-3.271,2.264-5.766c-0.045-2.539-0.801-4.507-2.264-5.902
		c-1.441-1.35-3.271-2.024-5.49-2.024h-3.021v-6.35H797.433z"/>
</g>
<circle fill="#FFFFFF" cx="925.232" cy="217.095" r="64.001"/>
<g>
	<path fill="#E7511E" d="M915.181,245.762h1.494l2.111,7.081h0.023l2.119-7.081h1.492l-3.074,9.301h-1.098L915.181,245.762z"/>
	<path fill="#E7511E" d="M923.417,245.762h1.41v7.968h4.529v1.333h-5.939V245.762z"/>
	<path fill="#E7511E" d="M930.683,245.762h1.41v4.79h0.025l3.828-4.79h1.672l-2.98,3.668l3.293,5.633h-1.672l-2.533-4.549
		l-1.633,1.717v2.832h-1.41V245.762z"/>
</g>
<g>
	<path fill="#E7511E" d="M899.337,195.026v-7.618l7.105-5.182h7.172v50.033h-7.172V189.81L899.337,195.026z"/>
	<path fill="#E7511E" d="M927.408,218.052l16.713-35.826h7.996l-16.918,35.826h13.072v-14.378h7.174v14.378h3.98v6.761h-3.98v7.446
		h-7.174v-7.446h-20.863V218.052z"/>
</g>
<circle fill="#FFFFFF" cx="1064.125" cy="217.095" r="64"/>
<g>
	<path fill="#E7511E" d="M1054.072,245.762h1.49l2.113,7.081h0.025l2.117-7.081h1.492l-3.074,9.301h-1.098L1054.072,245.762z"/>
	<path fill="#E7511E" d="M1062.306,245.762h1.41v7.968h4.529v1.333h-5.939V245.762L1062.306,245.762z"/>
	<path fill="#E7511E" d="M1069.574,245.762h1.408v4.79h0.025l3.828-4.79h1.672l-2.979,3.668l3.291,5.633h-1.672l-2.531-4.549
		l-1.635,1.717v2.832h-1.408V245.762z"/>
</g>
<g>
	<path fill="#E7511E" d="M1038.226,195.026v-7.618l7.105-5.182h7.172v50.033h-7.172V189.81L1038.226,195.026z"/>
	<path fill="#E7511E" d="M1068.939,182.226h26.664v7.172h-19.902v11.325c2.334-1.83,4.998-2.746,7.996-2.746
		c1.92,0.047,3.682,0.39,5.283,1.03c1.51,0.709,2.732,1.578,3.672,2.607c1.396,1.373,2.402,2.963,3.02,4.771
		c0.32,0.983,0.551,2.185,0.688,3.603c0.139,1.441,0.207,3.215,0.207,5.319c0,3.249-0.23,5.742-0.688,7.48
		c-0.48,1.716-1.281,3.238-2.402,4.564c-0.982,1.304-2.412,2.494-4.289,3.569c-1.83,1.121-4.004,1.703-6.521,1.75
		c-3.385,0-6.484-1.007-9.299-3.021c-2.859-2.059-4.633-5.388-5.318-9.985h7.172c0.777,3.843,3.168,5.788,7.172,5.833
		c1.717,0,3.09-0.343,4.117-1.029c0.984-0.663,1.672-1.532,2.061-2.607c0.412-1.075,0.664-2.242,0.756-3.501
		c0.045-1.235,0.068-2.437,0.068-3.603c0.045-2.859-0.4-5.182-1.34-6.967c-0.504-0.846-1.246-1.521-2.23-2.024
		c-0.982-0.412-2.207-0.617-3.672-0.617c-1.303,0-2.492,0.297-3.568,0.892c-1.076,0.618-2.037,1.693-2.883,3.226h-6.76v-27.041
		H1068.939z"/>
</g>
<circle fill="#FFFFFF" cx="783.761" cy="356.103" r="64"/>
<g>
	<path fill="#E7511E" d="M773.71,384.771h1.492l2.111,7.08h0.025l2.119-7.08h1.492l-3.074,9.301h-1.098L773.71,384.771z"/>
	<path fill="#E7511E" d="M781.947,384.771h1.408v7.968h4.529v1.333h-5.938V384.771L781.947,384.771z"/>
	<path fill="#E7511E" d="M789.212,384.771h1.41v4.789h0.025l3.826-4.789h1.672l-2.979,3.668l3.293,5.633h-1.672l-2.533-4.549
		l-1.633,1.717v2.832h-1.41V384.771L789.212,384.771z"/>
</g>
<g>
	<path fill="#E7511E" d="M757.867,334.035v-7.618l7.104-5.182h7.172v50.032h-7.172v-42.448L757.867,334.035z"/>
	<path fill="#E7511E" d="M811.16,320.72c0.021,0-0.086,0.246-0.326,0.738s-0.566,1.161-0.979,2.007
		c-0.412,0.847-0.893,1.819-1.441,2.917c-0.549,1.1-1.127,2.254-1.732,3.466c-0.605,1.213-1.225,2.438-1.854,3.672
		c-0.629,1.235-1.234,2.414-1.818,3.535s-1.115,2.14-1.596,3.055s-0.881,1.646-1.201,2.195c0.664-0.389,1.412-0.623,2.248-0.703
		c0.834-0.079,1.801-0.098,2.9-0.052c1.576,0.046,2.955,0.32,4.135,0.823c1.178,0.504,2.189,1.133,3.037,1.888
		c0.846,0.755,1.549,1.597,2.109,2.522s1,1.83,1.32,2.711s0.543,1.704,0.67,2.471c0.125,0.768,0.189,1.367,0.189,1.802
		c0,0.138,0,0.39,0,0.756c0,0.365,0,0.771,0,1.218c0,0.446-0.008,0.897-0.02,1.354c-0.012,0.458-0.029,0.848-0.051,1.167
		c-0.023,0.16-0.098,0.578-0.223,1.253c-0.127,0.676-0.355,1.477-0.688,2.401c-0.332,0.927-0.807,1.922-1.424,2.986
		c-0.619,1.062-1.432,2.069-2.438,3.02c-1.008,0.949-2.23,1.769-3.672,2.453c-1.441,0.687-3.158,1.109-5.146,1.271
		c-2.082,0.184-3.924,0.046-5.525-0.411s-2.986-1.109-4.152-1.956c-1.166-0.848-2.139-1.824-2.916-2.936
		c-0.777-1.108-1.391-2.247-1.836-3.414s-0.744-2.287-0.893-3.362c-0.15-1.075-0.178-1.99-0.086-2.745
		c0.137-1.12,0.285-2.121,0.445-3.003c0.16-0.881,0.35-1.722,0.566-2.521c0.217-0.801,0.463-1.59,0.736-2.368
		c0.273-0.776,0.596-1.624,0.961-2.539c0.092-0.229,0.344-0.771,0.756-1.63c0.412-0.857,0.92-1.916,1.527-3.175
		c0.604-1.258,1.287-2.643,2.041-4.152c0.756-1.509,1.51-3.042,2.266-4.599c1.783-3.614,3.785-7.652,6.004-12.113L811.16,320.72
		L811.16,320.72z M809.718,357.335c0-0.869-0.035-1.83-0.104-2.882c-0.068-1.053-0.326-2.054-0.771-3.003s-1.172-1.769-2.18-2.454
		c-1.006-0.687-2.438-1.098-4.289-1.235c-0.869-0.067-1.658,0.023-2.367,0.274c-0.709,0.252-1.338,0.596-1.889,1.03
		c-0.549,0.435-1.023,0.932-1.424,1.491c-0.4,0.561-0.732,1.115-0.994,1.664c-0.266,0.551-0.453,1.06-0.566,1.527
		c-0.115,0.47-0.172,0.83-0.172,1.081c0,0.572,0.012,1.207,0.035,1.904c0.021,0.697,0.096,1.396,0.223,2.094
		c0.125,0.698,0.336,1.372,0.635,2.023c0.297,0.652,0.721,1.23,1.27,1.733c0.551,0.503,1.254,0.915,2.111,1.235
		c0.857,0.319,1.928,0.479,3.209,0.479c1.027,0.022,1.926-0.107,2.691-0.395c0.768-0.287,1.42-0.652,1.957-1.1
		c0.537-0.445,0.979-0.942,1.32-1.493c0.344-0.549,0.613-1.086,0.807-1.611c0.195-0.526,0.326-1.001,0.396-1.424
		C809.683,357.856,809.718,357.542,809.718,357.335z"/>
</g>
<circle fill="#FFFFFF" cx="925.232" cy="356.103" r="64.001"/>
<g>
	<path fill="#E7511E" d="M915.181,384.771h1.494l2.111,7.08h0.023l2.119-7.08h1.492l-3.074,9.301h-1.098L915.181,384.771z"/>
	<path fill="#E7511E" d="M923.417,384.771h1.41v7.968h4.529v1.333h-5.939V384.771z"/>
	<path fill="#E7511E" d="M930.683,384.771h1.41v4.789h0.025l3.828-4.789h1.672l-2.98,3.668l3.293,5.633h-1.672l-2.533-4.549
		l-1.633,1.717v2.832h-1.41V384.771z"/>
</g>
<g>
	<path fill="#E7511E" d="M899.337,334.035v-7.618l7.105-5.182h7.172v50.032h-7.172v-42.448L899.337,334.035z"/>
	<path fill="#E7511E" d="M930.119,321.235h28.482v7.172l-16.953,42.86h-7.994l16.918-42.86h-13.281v7.241h-7.172V321.235z"/>
</g>
<circle fill="#FFFFFF" cx="1064.125" cy="356.103" r="64"/>
<g>
	<path fill="#E7511E" d="M1054.072,384.771h1.49l2.113,7.08h0.025l2.117-7.08h1.492l-3.074,9.301h-1.098L1054.072,384.771z"/>
	<path fill="#E7511E" d="M1062.306,384.771h1.41v7.968h4.529v1.333h-5.939V384.771L1062.306,384.771z"/>
	<path fill="#E7511E" d="M1069.574,384.771h1.408v4.789h0.025l3.828-4.789h1.672l-2.979,3.668l3.291,5.633h-1.672l-2.531-4.549
		l-1.635,1.717v2.832h-1.408V384.771z"/>
</g>
<g>
	<path fill="#E7511E" d="M1038.226,334.035v-7.618l7.105-5.182h7.172v50.032h-7.172v-42.448L1038.226,334.035z"/>
	<path fill="#E7511E" d="M1067.052,356.649c0.045-4.826,2.014-8.578,5.902-11.256c-1.486-1.305-2.654-2.803-3.5-4.495
		c-0.984-1.578-1.477-3.454-1.477-5.629c0.047-4.162,1.453-7.605,4.223-10.328c2.605-2.699,5.971-4.071,10.088-4.117
		c4.188,0.046,7.605,1.418,10.262,4.117c2.676,2.723,4.037,6.166,4.082,10.328c0,2.175-0.445,4.051-1.338,5.629
		c-0.938,1.692-2.15,3.19-3.637,4.495c3.889,2.678,5.855,6.43,5.9,11.256c-0.045,4.508-1.52,8.11-4.426,10.81
		c-2.951,2.769-6.566,4.175-10.844,4.222c-4.256-0.047-7.812-1.453-10.674-4.222C1068.619,364.76,1067.097,361.157,1067.052,356.649
		z M1074.224,356.581c0.047,2.288,0.869,4.164,2.473,5.628c1.531,1.533,3.396,2.299,5.594,2.299c2.264,0,4.162-0.766,5.695-2.299
		c1.557-1.464,2.355-3.34,2.402-5.628c-0.047-2.333-0.848-4.232-2.402-5.696c-1.533-1.44-3.432-2.185-5.695-2.229
		c-2.197,0.046-4.062,0.789-5.594,2.229C1075.093,352.348,1074.271,354.248,1074.224,356.581z M1075.152,335.133
		c0.045,2.312,0.787,4.072,2.229,5.284c1.418,1.259,3.055,1.888,4.908,1.888c1.922,0,3.59-0.629,5.01-1.888
		c1.396-1.212,2.115-2.974,2.162-5.284c-0.047-2.379-0.768-4.175-2.162-5.388c-1.42-1.167-3.088-1.75-5.01-1.75
		c-1.855,0-3.49,0.583-4.908,1.75C1075.939,330.958,1075.197,332.754,1075.152,335.133z"/>
</g>
<circle fill="#FFFFFF" cx="783.761" cy="497.111" r="64"/>
<g>
	<path fill="#E7511E" d="M773.71,525.781h1.492l2.111,7.08h0.025l2.119-7.08h1.492l-3.074,9.301h-1.098L773.71,525.781z"/>
	<path fill="#E7511E" d="M781.947,525.781h1.408v7.967h4.529v1.334h-5.938V525.781L781.947,525.781z"/>
	<path fill="#E7511E" d="M789.212,525.781h1.41v4.789h0.025l3.826-4.789h1.672l-2.979,3.668l3.293,5.633h-1.672l-2.533-4.549
		l-1.633,1.717v2.832h-1.41V525.781L789.212,525.781z"/>
</g>
<g>
	<path fill="#E7511E" d="M757.867,475.044v-7.619l7.104-5.182h7.172v50.033h-7.172v-42.449L757.867,475.044z"/>
	<path fill="#E7511E" d="M792.492,512.277c-0.023,0,0.172-0.416,0.584-1.252c0.41-0.834,0.947-1.916,1.611-3.242
		c0.664-1.328,1.406-2.805,2.23-4.428s1.635-3.227,2.436-4.805c0.803-1.578,1.551-3.031,2.248-4.357s1.266-2.367,1.699-3.123
		c-0.664,0.389-1.412,0.623-2.248,0.703s-1.801,0.098-2.898,0.053c-1.512-0.047-2.832-0.32-3.965-0.824s-2.109-1.133-2.934-1.887
		c-0.824-0.756-1.51-1.598-2.059-2.523c-0.551-0.926-0.99-1.83-1.322-2.711s-0.572-1.703-0.721-2.471s-0.223-1.367-0.223-1.801
		c0-0.139-0.006-0.391-0.018-0.756c-0.014-0.365-0.018-0.771-0.018-1.219c0-0.445,0.004-0.896,0.018-1.355
		c0.012-0.457,0.039-0.846,0.086-1.166c0.021-0.16,0.096-0.566,0.223-1.219c0.125-0.65,0.359-1.436,0.703-2.352
		c0.344-0.914,0.824-1.893,1.441-2.934s1.424-2.02,2.42-2.936c0.994-0.914,2.219-1.703,3.672-2.367
		c1.451-0.664,3.174-1.086,5.164-1.27c2.082-0.184,3.918-0.059,5.508,0.377s2.957,1.062,4.102,1.889
		c1.145,0.822,2.094,1.783,2.848,2.881c0.756,1.1,1.344,2.215,1.768,3.348s0.703,2.23,0.842,3.295
		c0.137,1.062,0.16,1.973,0.068,2.729c-0.137,1.121-0.287,2.121-0.447,3.002s-0.348,1.723-0.564,2.521
		c-0.219,0.801-0.463,1.592-0.738,2.369c-0.273,0.775-0.594,1.623-0.961,2.539c-0.092,0.252-0.338,0.801-0.736,1.646
		c-0.4,0.846-0.904,1.881-1.512,3.105c-0.604,1.223-1.27,2.584-1.99,4.082c-0.721,1.5-1.457,3.004-2.213,4.514
		c-1.762,3.568-3.729,7.549-5.9,11.941h-8.203V512.277z M794.037,476.039c0,0.893,0.045,1.877,0.137,2.951
		c0.092,1.076,0.359,2.088,0.807,3.037c0.445,0.949,1.148,1.764,2.109,2.438c0.961,0.676,2.312,1.059,4.051,1.148
		c0.869,0.047,1.658-0.062,2.367-0.324c0.709-0.264,1.338-0.613,1.887-1.047c0.551-0.436,1.023-0.928,1.426-1.477
		c0.4-0.549,0.73-1.094,0.994-1.631s0.451-1.035,0.566-1.492c0.113-0.457,0.172-0.822,0.172-1.098
		c-0.023-0.572-0.041-1.213-0.053-1.922s-0.08-1.43-0.205-2.162c-0.127-0.732-0.338-1.436-0.635-2.111
		c-0.299-0.674-0.723-1.264-1.271-1.768c-0.549-0.502-1.252-0.896-2.109-1.184c-0.857-0.285-1.928-0.395-3.209-0.326
		c-1.418,0.068-2.578,0.424-3.482,1.062c-0.904,0.643-1.619,1.352-2.145,2.129c-0.527,0.777-0.893,1.533-1.1,2.266
		C794.138,475.261,794.037,475.765,794.037,476.039z"/>
</g>
<circle fill="#FFFFFF" cx="925.232" cy="497.112" r="64.001"/>
<g>
	<path fill="#E7511E" d="M915.181,525.781h1.494l2.111,7.08h0.023l2.119-7.08h1.492l-3.074,9.301h-1.098L915.181,525.781z"/>
	<path fill="#E7511E" d="M923.417,525.781h1.41v7.967h4.529v1.334h-5.939V525.781z"/>
	<path fill="#E7511E" d="M930.683,525.781h1.41v4.789h0.025l3.828-4.789h1.672l-2.98,3.668l3.293,5.633h-1.672l-2.533-4.549
		l-1.633,1.717v2.832h-1.41V525.781z"/>
</g>
<g>
	<path fill="#E7511E" d="M895.082,505.517l19.525-24.434c0.756-0.982,1.271-1.898,1.545-2.744c0.184-0.801,0.273-1.557,0.273-2.266
		c0-1.875-0.582-3.512-1.75-4.906c-1.213-1.396-2.928-2.117-5.146-2.162c-1.969,0-3.604,0.629-4.906,1.887
		c-1.352,1.26-2.15,3.031-2.402,5.318h-7.139c0.184-4.162,1.58-7.605,4.188-10.328c2.631-2.654,5.867-4.004,9.711-4.049
		c4.303,0.045,7.791,1.418,10.469,4.117c2.721,2.676,4.104,6.074,4.15,10.191c0,3.293-1.008,6.223-3.02,8.785l-16.094,20.178h19.113
		v7.172h-28.518V505.517z"/>
	<path fill="#E7511E" d="M929.228,476.21c0.045-4.621,1.521-8.178,4.428-10.672c2.721-2.471,5.971-3.705,9.744-3.705
		c3.891,0,7.195,1.234,9.918,3.705c2.768,2.494,4.197,6.051,4.289,10.672v22.066c-0.092,4.598-1.521,8.145-4.289,10.637
		c-2.723,2.471-6.027,3.729-9.918,3.775c-3.773-0.047-7.023-1.305-9.744-3.775c-2.906-2.492-4.383-6.039-4.428-10.637V476.21z
		 M950.435,476.658c-0.139-5.01-2.482-7.562-7.035-7.652c-4.574,0.092-6.908,2.643-7,7.652v21.207c0.092,5.057,2.426,7.605,7,7.65
		c4.553-0.045,6.896-2.596,7.035-7.65V476.658z"/>
</g>
<circle fill="#FFFFFF" cx="1064.125" cy="497.111" r="64"/>
<g>
	<path fill="#E7511E" d="M1054.072,525.781h1.49l2.113,7.08h0.025l2.117-7.08h1.492l-3.074,9.301h-1.098L1054.072,525.781z"/>
	<path fill="#E7511E" d="M1062.306,525.781h1.41v7.967h4.529v1.334h-5.939V525.781L1062.306,525.781z"/>
	<path fill="#E7511E" d="M1069.574,525.781h1.408v4.789h0.025l3.828-4.789h1.672l-2.979,3.668l3.291,5.633h-1.672l-2.531-4.549
		l-1.635,1.717v2.832h-1.408V525.781z"/>
</g>
<g>
	<path fill="#E7511E" d="M1033.972,505.517l19.525-24.434c0.756-0.982,1.27-1.898,1.545-2.744c0.182-0.801,0.273-1.557,0.273-2.266
		c0-1.875-0.582-3.512-1.75-4.906c-1.213-1.396-2.93-2.117-5.146-2.162c-1.969,0-3.604,0.629-4.908,1.887
		c-1.35,1.26-2.148,3.031-2.4,5.318h-7.139c0.184-4.162,1.578-7.605,4.188-10.328c2.631-2.654,5.867-4.004,9.711-4.049
		c4.301,0.045,7.789,1.418,10.467,4.117c2.723,2.676,4.105,6.074,4.152,10.191c0,3.293-1.008,6.223-3.021,8.785l-16.094,20.178
		h19.113v7.172h-28.516V505.517L1033.972,505.517z"/>
	<path fill="#E7511E" d="M1071.96,475.044v-7.619l7.104-5.182h7.172v50.033h-7.172v-42.449L1071.96,475.044z"/>
</g>
<circle fill="#FFFFFF" cx="783.761" cy="636.125" r="64"/>
<g>
	<path fill="#E7511E" d="M773.71,664.789h1.492l2.111,7.08h0.025l2.119-7.08h1.492l-3.074,9.301h-1.098L773.71,664.789z"/>
	<path fill="#E7511E" d="M781.947,664.789h1.408v7.967h4.529v1.334h-5.938V664.789L781.947,664.789z"/>
	<path fill="#E7511E" d="M789.212,664.789h1.41v4.789h0.025l3.826-4.789h1.672l-2.979,3.668l3.293,5.633h-1.672l-2.533-4.549
		l-1.633,1.717v2.832h-1.41V664.789L789.212,664.789z"/>
</g>
<g>
	<path fill="#E7511E" d="M753.611,644.525l19.525-24.434c0.756-0.982,1.271-1.898,1.545-2.746c0.184-0.801,0.273-1.555,0.273-2.264
		c0-1.877-0.582-3.512-1.75-4.908c-1.213-1.395-2.928-2.115-5.146-2.162c-1.969,0-3.604,0.629-4.906,1.889
		c-1.352,1.258-2.15,3.031-2.402,5.318h-7.139c0.184-4.164,1.578-7.605,4.188-10.33c2.631-2.652,5.867-4.002,9.711-4.049
		c4.301,0.047,7.789,1.418,10.467,4.117c2.723,2.678,4.105,6.074,4.152,10.193c0,3.293-1.008,6.223-3.02,8.783l-16.096,20.18h19.113
		v7.172h-28.516V644.525L753.611,644.525z"/>
	<path fill="#E7511E" d="M787.343,644.525l19.527-24.434c0.754-0.982,1.27-1.898,1.543-2.746c0.184-0.801,0.273-1.555,0.273-2.264
		c0-1.877-0.582-3.512-1.75-4.908c-1.213-1.395-2.928-2.115-5.146-2.162c-1.967,0-3.604,0.629-4.906,1.889
		c-1.35,1.258-2.15,3.031-2.4,5.318h-7.141c0.186-4.164,1.58-7.605,4.189-10.33c2.629-2.652,5.867-4.002,9.711-4.049
		c4.301,0.047,7.789,1.418,10.467,4.117c2.721,2.678,4.104,6.074,4.152,10.193c0,3.293-1.01,6.223-3.021,8.783l-16.094,20.18h19.113
		v7.172h-28.518V644.525L787.343,644.525z"/>
</g>
<circle fill="#FFFFFF" cx="925.232" cy="636.125" r="64.001"/>
<g>
	<path fill="#E7511E" d="M915.181,664.789h1.494l2.111,7.08h0.023l2.119-7.08h1.492l-3.074,9.301h-1.098L915.181,664.789z"/>
	<path fill="#E7511E" d="M923.417,664.789h1.41v7.967h4.529v1.334h-5.939V664.789z"/>
	<path fill="#E7511E" d="M930.683,664.789h1.41v4.789h0.025l3.828-4.789h1.672l-2.98,3.668l3.293,5.633h-1.672l-2.533-4.549
		l-1.633,1.717v2.832h-1.41V664.789z"/>
</g>
<g>
	<path fill="#E7511E" d="M895.082,644.525l19.525-24.434c0.756-0.982,1.271-1.898,1.545-2.746c0.184-0.801,0.273-1.555,0.273-2.264
		c0-1.877-0.582-3.512-1.75-4.908c-1.213-1.395-2.928-2.115-5.146-2.162c-1.969,0-3.604,0.629-4.906,1.889
		c-1.352,1.258-2.15,3.031-2.402,5.318h-7.139c0.184-4.164,1.58-7.605,4.188-10.33c2.631-2.652,5.867-4.002,9.711-4.049
		c4.303,0.047,7.791,1.418,10.469,4.117c2.721,2.678,4.104,6.074,4.15,10.193c0,3.293-1.008,6.223-3.02,8.783l-16.094,20.18h19.113
		v7.172h-28.518V644.525z"/>
	<path fill="#E7511E" d="M938.904,622.322h2.471c2.449,0,4.348-0.674,5.697-2.023c1.35-1.305,2.023-2.998,2.023-5.08
		c-0.047-2.104-0.744-3.83-2.094-5.182c-1.35-1.303-3.088-1.979-5.215-2.023c-1.533,0-2.93,0.492-4.188,1.477
		c-1.328,0.982-2.221,2.504-2.678,4.562h-7.172c0.365-3.707,1.865-6.828,4.496-9.369c2.584-2.516,5.674-3.797,9.266-3.842
		c4.551,0.045,8.166,1.498,10.844,4.357c2.562,2.791,3.865,6.086,3.912,9.883c0,1.922-0.344,3.775-1.029,5.559
		c-0.803,1.785-2.23,3.375-4.289,4.771c2.104,1.373,3.625,3.02,4.562,4.941c0.893,1.922,1.338,3.936,1.338,6.039
		c-0.045,4.689-1.498,8.387-4.357,11.084c-2.812,2.77-6.43,4.176-10.844,4.223c-3.408,0-6.43-1.1-9.061-3.295
		c-2.631-2.197-4.334-5.377-5.111-9.541h7.172c0.641,1.672,1.545,3.021,2.711,4.051c1.189,1.074,2.768,1.611,4.734,1.611
		c2.105,0,3.879-0.721,5.32-2.16c1.463-1.352,2.219-3.271,2.264-5.768c-0.045-2.539-0.801-4.506-2.264-5.9
		c-1.441-1.352-3.273-2.025-5.492-2.025h-3.02v-6.35H938.904z"/>
</g>
<circle fill="#FFFFFF" cx="1064.125" cy="636.125" r="64"/>
<g>
	<path fill="#E7511E" d="M1054.072,664.789h1.49l2.113,7.08h0.025l2.117-7.08h1.492l-3.074,9.301h-1.098L1054.072,664.789z"/>
	<path fill="#E7511E" d="M1062.306,664.789h1.41v7.967h4.529v1.334h-5.939V664.789L1062.306,664.789z"/>
	<path fill="#E7511E" d="M1069.574,664.789h1.408v4.789h0.025l3.828-4.789h1.672l-2.979,3.668l3.291,5.633h-1.672l-2.531-4.549
		l-1.635,1.717v2.832h-1.408V664.789z"/>
</g>
<g>
	<path fill="#E7511E" d="M1033.972,644.525l19.525-24.434c0.756-0.982,1.27-1.898,1.545-2.746c0.182-0.801,0.273-1.555,0.273-2.264
		c0-1.877-0.582-3.512-1.75-4.908c-1.213-1.395-2.93-2.115-5.146-2.162c-1.969,0-3.604,0.629-4.908,1.889
		c-1.35,1.258-2.148,3.031-2.4,5.318h-7.139c0.184-4.164,1.578-7.605,4.188-10.33c2.631-2.652,5.867-4.002,9.711-4.049
		c4.301,0.047,7.789,1.418,10.467,4.117c2.723,2.678,4.105,6.074,4.152,10.193c0,3.293-1.008,6.223-3.021,8.783l-16.094,20.18
		h19.113v7.172h-28.516V644.525L1033.972,644.525z"/>
	<path fill="#E7511E" d="M1066.298,637.078l16.711-35.826h7.996l-16.918,35.826h13.074v-14.377h7.172v14.377h3.98v6.762h-3.98v7.445
		h-7.172v-7.445h-20.863V637.078z"/>
</g>
</svg>
